<?xml version="1.0" standalone="no"?>
<!DOCTYPE svg PUBLIC "-//W3C//DTD SVG 20010904//EN"
 "http://www.w3.org/TR/2001/REC-SVG-20010904/DTD/svg10.dtd">
<svg version="1.0" xmlns="http://www.w3.org/2000/svg"
 width="1500.000000pt" height="1500.000000pt" viewBox="0 0 1500.000000 1500.000000"
 preserveAspectRatio="xMidYMid meet">
<metadata>
Created by potrace 1.11, written by Peter Selinger 2001-2013
</metadata>
<g transform="translate(0.000000,1500.000000) scale(0.100000,-0.100000)"
fill="#000000" stroke="none">
<path d="M7966 13811 c-9 -16 -16 -37 -16 -45 0 -8 -5 -16 -10 -18 -6 -2 -12
-13 -13 -26 0 -12 -5 -22 -10 -22 -4 0 -5 -4 -2 -10 3 -5 3 -10 -2 -10 -4 0
-14 -15 -22 -32 -7 -18 -20 -46 -27 -62 -8 -16 -14 -35 -14 -43 0 -7 -4 -13
-10 -13 -5 0 -10 -9 -10 -19 0 -11 -6 -26 -12 -33 -7 -7 -15 -22 -16 -33 -2
-10 -11 -25 -20 -33 -12 -9 -13 -11 -2 -6 12 6 13 4 3 -7 -7 -7 -13 -21 -13
-31 0 -10 -4 -18 -8 -18 -9 0 -37 -70 -34 -82 1 -5 -2 -8 -8 -8 -5 0 -10 -9
-10 -19 0 -11 -5 -21 -10 -23 -6 -2 -12 -13 -13 -26 0 -12 -6 -22 -11 -22 -5
0 -7 -3 -3 -6 3 -4 -1 -13 -9 -21 -8 -9 -13 -22 -10 -29 3 -8 1 -14 -4 -14 -6
0 -10 -7 -10 -15 0 -8 -5 -15 -12 -15 -6 0 -9 -3 -5 -6 3 -4 -3 -24 -14 -45
-11 -22 -16 -39 -12 -39 5 0 0 -5 -9 -11 -10 -5 -18 -19 -18 -29 0 -10 -5 -22
-11 -25 -6 -4 -8 -13 -5 -21 3 -8 2 -14 -3 -14 -5 0 -12 -10 -16 -22 -4 -13
-8 -25 -9 -28 -1 -3 -8 -16 -16 -30 -8 -14 -15 -27 -15 -30 0 -3 -6 -15 -13
-26 -6 -12 -8 -24 -5 -28 3 -3 1 -6 -6 -6 -6 0 -11 -8 -9 -17 2 -10 -2 -17 -8
-16 -6 1 -11 -3 -11 -10 0 -11 -9 -35 -50 -124 -10 -21 -16 -41 -15 -45 1 -5
-3 -8 -8 -8 -6 0 -10 -5 -10 -11 0 -5 -10 -31 -22 -57 -12 -26 -21 -53 -19
-61 1 -7 -2 -10 -8 -6 -7 3 -11 -2 -11 -14 0 -11 -6 -26 -13 -33 -7 -7 -12
-20 -12 -28 0 -8 -4 -18 -10 -22 -5 -4 -11 -11 -11 -15 -5 -26 -18 -53 -25
-53 -5 0 -9 -5 -9 -11 0 -5 6 -7 13 -4 6 4 4 0 -5 -8 -10 -8 -15 -17 -11 -20
3 -4 1 -7 -6 -7 -7 0 -10 -4 -6 -9 3 -5 -2 -16 -10 -25 -9 -8 -15 -17 -14 -18
6 -8 -24 -77 -31 -73 -4 3 -6 -5 -2 -17 3 -14 2 -19 -6 -14 -8 4 -12 0 -12
-11 0 -11 -5 -24 -12 -31 -7 -7 -8 -12 -3 -12 4 0 0 -10 -11 -22 -10 -12 -13
-18 -6 -14 17 10 15 1 -4 -18 -9 -9 -17 -23 -18 -32 -1 -9 -9 -20 -17 -25 -11
-7 -11 -9 -1 -9 10 0 8 -8 -6 -27 -10 -16 -25 -44 -32 -63 -7 -19 -17 -39 -22
-44 -4 -6 -8 -18 -8 -28 0 -10 -4 -18 -10 -18 -5 0 -10 -6 -10 -13 0 -7 -9
-32 -20 -55 -11 -22 -20 -46 -20 -52 0 -5 -4 -10 -10 -10 -5 0 -10 -9 -10 -21
0 -11 -4 -18 -9 -15 -5 4 -7 -4 -3 -16 4 -16 2 -19 -8 -13 -10 6 -12 4 -7 -8
3 -9 -1 -24 -11 -33 -9 -10 -16 -20 -16 -23 2 -8 -13 -47 -46 -116 -15 -33
-31 -70 -35 -83 -3 -12 -11 -19 -17 -16 -6 4 -8 3 -5 -2 3 -6 -3 -29 -14 -53
-11 -24 -17 -46 -15 -49 3 -2 -4 -13 -14 -25 -11 -11 -17 -24 -14 -29 3 -4 0
-8 -5 -8 -6 0 -10 -3 -9 -7 1 -5 -3 -18 -10 -29 -6 -12 -8 -24 -5 -28 3 -3 0
-6 -7 -6 -7 0 -10 -3 -7 -7 4 -3 -1 -12 -11 -20 -9 -8 -11 -12 -4 -8 7 4 4 -8
-8 -29 -11 -20 -17 -36 -14 -36 3 0 -2 -7 -11 -16 -9 -9 -14 -23 -11 -30 3 -8
2 -14 -3 -14 -5 0 -12 -10 -16 -22 -4 -13 -8 -26 -10 -30 -1 -5 -3 -13 -4 -19
0 -5 -6 -7 -13 -3 -7 5 -9 0 -6 -14 4 -13 0 -23 -9 -26 -8 -3 -12 -10 -8 -15
3 -5 1 -12 -5 -16 -5 -3 -10 -15 -10 -26 0 -10 -4 -19 -10 -19 -5 0 -10 -9
-10 -19 0 -11 -5 -23 -10 -26 -6 -4 -8 -11 -5 -16 4 -5 1 -9 -4 -9 -6 0 -11
-7 -11 -15 0 -9 -7 -27 -16 -40 -9 -13 -13 -29 -9 -35 4 -6 1 -9 -5 -8 -7 2
-14 -8 -16 -22 -3 -14 -10 -30 -17 -35 -11 -9 -16 -21 -21 -53 -1 -8 -7 -17
-13 -20 -5 -4 -9 -17 -8 -29 1 -12 -2 -20 -6 -17 -5 3 -11 -7 -15 -21 -3 -14
-11 -22 -17 -18 -6 3 -7 1 -3 -5 3 -6 -10 -46 -30 -89 -21 -43 -37 -84 -37
-90 0 -7 -5 -13 -10 -13 -6 0 -8 -3 -4 -6 3 -4 -1 -13 -9 -21 -8 -8 -12 -19
-9 -24 4 -5 1 -9 -5 -9 -6 0 -8 -4 -5 -10 3 -5 2 -10 -4 -10 -5 0 -8 -9 -6
-20 2 -11 0 -18 -6 -15 -8 6 -13 -8 -10 -27 0 -5 -4 -8 -10 -8 -5 0 -7 -4 -4
-10 3 -5 1 -10 -5 -10 -6 0 -8 -4 -5 -10 3 -5 1 -10 -5 -10 -6 0 -9 -4 -6 -8
3 -5 -3 -22 -13 -38 -10 -16 -21 -42 -25 -57 -4 -17 -11 -25 -18 -21 -7 4 -8
3 -4 -5 4 -6 2 -18 -4 -26 -6 -8 -9 -18 -6 -24 3 -5 -1 -12 -9 -15 -8 -3 -14
-9 -13 -13 1 -4 -7 -26 -17 -48 -10 -22 -19 -44 -20 -50 -4 -21 -17 -45 -24
-41 -4 3 -8 -7 -9 -22 -1 -14 -7 -29 -13 -33 -6 -3 -10 -9 -10 -13 3 -20 0
-26 -9 -21 -6 4 -10 3 -8 -2 4 -16 -14 -73 -23 -73 -5 0 -9 -9 -9 -19 0 -11
-7 -26 -15 -35 -9 -8 -15 -17 -15 -18 5 -10 -14 -58 -22 -58 -5 0 -6 -4 -3
-10 3 -5 2 -10 -4 -10 -6 0 -8 -7 -5 -15 4 -8 1 -15 -5 -15 -6 0 -11 -6 -11
-13 0 -7 -9 -29 -19 -49 -11 -19 -17 -39 -14 -42 4 -3 0 -6 -7 -6 -7 0 -10 -3
-7 -6 4 -4 -3 -20 -14 -35 -11 -16 -17 -29 -14 -29 4 0 0 -11 -9 -25 -9 -14
-14 -30 -11 -35 3 -6 2 -10 -4 -10 -10 0 -27 -38 -23 -52 1 -5 -2 -8 -6 -8 -5
0 -15 -18 -22 -40 -7 -22 -18 -40 -23 -40 -6 0 -7 -3 -4 -6 3 -4 1 -16 -5 -28
-7 -11 -11 -24 -10 -28 1 -5 -3 -8 -9 -8 -5 0 -8 -4 -4 -9 3 -5 1 -12 -5 -16
-6 -4 -8 -11 -5 -16 4 -5 2 -9 -4 -9 -5 0 -12 -13 -16 -30 -4 -16 -11 -30 -16
-30 -5 0 -9 -9 -9 -19 0 -11 -4 -22 -9 -26 -5 -3 -12 -19 -16 -35 -4 -17 -11
-30 -17 -30 -6 0 -9 -3 -5 -6 3 -3 -3 -22 -14 -41 -11 -19 -17 -38 -14 -44 4
-5 2 -9 -3 -9 -10 0 -36 -58 -33 -72 0 -5 -4 -8 -10 -8 -5 0 -7 -4 -4 -10 3
-5 1 -10 -5 -10 -6 0 -8 -5 -5 -10 3 -6 -1 -13 -10 -16 -13 -6 -14 -8 -3 -15
8 -6 9 -9 1 -9 -6 0 -14 -14 -18 -30 -4 -17 -11 -30 -16 -30 -6 0 -8 -4 -4 -9
3 -5 -2 -17 -11 -25 -8 -9 -12 -16 -8 -16 3 0 1 -7 -6 -15 -7 -8 -10 -21 -6
-30 3 -8 0 -14 -7 -12 -7 1 -11 -4 -10 -10 2 -7 -2 -13 -7 -13 -5 0 -9 -3 -9
-7 3 -21 -2 -33 -13 -27 -7 4 -8 3 -4 -4 4 -6 -2 -29 -14 -51 -11 -22 -20 -47
-20 -56 0 -8 -4 -15 -10 -15 -5 0 -10 -9 -10 -21 0 -13 -4 -18 -12 -13 -7 4
-8 3 -4 -5 4 -6 2 -18 -4 -26 -6 -8 -9 -18 -6 -24 3 -5 -1 -12 -10 -15 -8 -3
-12 -10 -9 -16 3 -5 2 -10 -3 -10 -5 0 -15 -20 -22 -45 -7 -25 -17 -45 -21
-45 -5 0 -9 -5 -9 -11 0 -5 -10 -31 -22 -57 -12 -26 -23 -54 -24 -62 -2 -8 -7
-16 -13 -18 -5 -2 -7 -10 -4 -18 3 -8 1 -14 -4 -14 -6 0 -16 -18 -23 -40 -7
-22 -17 -40 -22 -40 -4 0 -8 -9 -8 -20 0 -11 -5 -20 -10 -20 -6 0 -9 -3 -8 -7
3 -17 -16 -69 -31 -81 -9 -8 -11 -11 -4 -8 6 4 -1 -17 -17 -46 -16 -29 -26
-56 -24 -60 3 -4 0 -8 -6 -8 -6 0 -9 -4 -6 -9 4 -5 2 -11 -3 -13 -5 -1 -11
-12 -13 -23 -1 -11 -10 -28 -18 -38 -15 -17 -16 -22 -19 -53 0 -8 -5 -13 -10
-9 -6 3 -8 -6 -5 -20 2 -14 0 -24 -5 -23 -5 2 -9 0 -10 -5 0 -4 -13 -31 -28
-60 -15 -28 -28 -56 -29 -62 0 -5 -16 -41 -34 -80 -19 -38 -34 -72 -35 -75 0
-3 -10 -25 -22 -50 -32 -67 -47 -103 -47 -120 -1 -8 -6 -15 -13 -15 -6 0 -15
-3 -19 -7 -4 -5 -3 -8 3 -8 6 0 1 -20 -10 -45 -11 -24 -24 -42 -28 -40 -4 3
-5 -4 -2 -15 3 -12 0 -20 -6 -20 -7 0 -10 -4 -6 -9 3 -5 1 -12 -5 -16 -6 -4
-8 -11 -5 -16 4 -5 1 -9 -5 -9 -6 0 -8 -4 -5 -10 3 -6 1 -10 -5 -10 -6 0 -8
-4 -5 -10 3 -5 1 -10 -6 -10 -7 0 -9 -3 -6 -7 4 -3 1 -13 -6 -22 -7 -9 -19
-35 -27 -58 -7 -24 -17 -43 -22 -43 -5 0 -7 -4 -3 -9 3 -5 -2 -17 -11 -25 -8
-9 -12 -16 -8 -16 3 0 2 -6 -4 -12 -6 -7 -10 -17 -11 -21 0 -4 -14 -37 -30
-72 -17 -36 -31 -70 -31 -75 0 -6 -5 -10 -10 -10 -6 0 -9 -3 -8 -7 3 -13 -25
-83 -34 -83 -4 0 -7 -3 -6 -7 4 -12 -36 -103 -45 -103 -5 0 -6 -4 -2 -9 3 -5
1 -12 -5 -16 -6 -4 -8 -11 -5 -16 4 -5 1 -9 -5 -9 -7 0 -10 -6 -7 -14 3 -8 -1
-17 -9 -20 -8 -3 -13 -9 -12 -13 0 -4 -4 -21 -10 -36 -7 -16 -12 -33 -12 -38
0 -5 -5 -9 -10 -9 -6 0 -9 -3 -9 -7 3 -14 -23 -73 -32 -73 -4 0 -6 -7 -3 -15
4 -8 1 -15 -6 -15 -7 0 -10 -7 -6 -15 3 -8 2 -15 -2 -15 -7 0 -29 -48 -28 -60
0 -3 -10 -22 -22 -42 -13 -21 -21 -42 -17 -48 3 -5 1 -10 -4 -10 -6 0 -11 -7
-11 -15 0 -8 -5 -15 -10 -15 -6 0 -9 -3 -8 -7 4 -11 -26 -73 -34 -73 -4 0 -5
-7 -2 -15 4 -8 1 -15 -6 -15 -6 0 -9 -4 -5 -9 3 -5 0 -13 -6 -16 -5 -4 -8 -14
-5 -22 3 -8 1 -11 -4 -8 -9 5 -15 -15 -11 -37 0 -5 -4 -8 -11 -8 -6 0 -9 -3
-5 -6 3 -3 -3 -15 -13 -26 -10 -11 -16 -26 -13 -34 3 -8 0 -14 -6 -14 -6 0
-10 -3 -9 -7 1 -5 -3 -18 -10 -29 -6 -12 -8 -24 -5 -28 3 -3 1 -6 -5 -6 -7 0
-12 -7 -12 -15 0 -8 -5 -15 -11 -15 -5 0 -8 -4 -5 -8 3 -5 -2 -21 -9 -36 -8
-16 -12 -33 -8 -39 3 -6 1 -7 -5 -3 -7 4 -15 -9 -22 -34 -6 -22 -15 -40 -21
-40 -6 0 -8 -4 -4 -9 3 -5 1 -12 -5 -16 -6 -4 -8 -11 -5 -16 4 -5 1 -9 -5 -9
-6 0 -9 -4 -6 -9 3 -5 0 -11 -8 -14 -9 -4 -12 -14 -9 -26 3 -12 1 -21 -4 -21
-13 0 -35 -49 -28 -61 4 -5 3 -9 -2 -9 -11 0 -34 -51 -27 -61 3 -5 -2 -9 -10
-9 -10 0 -13 -6 -10 -15 4 -8 1 -15 -5 -15 -6 0 -10 -3 -9 -7 1 -5 -3 -18 -10
-29 -6 -12 -8 -24 -5 -28 3 -3 1 -6 -6 -6 -6 0 -11 -8 -9 -17 2 -11 -2 -17
-10 -15 -7 1 -12 -3 -11 -10 3 -20 -22 -79 -31 -73 -4 2 -6 -7 -4 -20 1 -14
-2 -25 -7 -25 -5 0 -9 -7 -9 -15 0 -8 -4 -15 -8 -15 -4 0 -8 -10 -9 -22 -1
-11 -8 -25 -15 -29 -7 -4 -9 -11 -5 -15 4 -4 -1 -13 -11 -21 -10 -9 -11 -12
-2 -7 10 5 9 1 -3 -14 -11 -11 -16 -26 -12 -31 3 -6 1 -11 -4 -11 -6 0 -11 -6
-11 -14 0 -8 -7 -17 -16 -20 -8 -3 -13 -10 -9 -15 6 -10 -44 -124 -57 -129 -4
-2 -4 -10 -1 -18 3 -8 0 -14 -7 -14 -6 0 -8 -4 -5 -10 3 -5 1 -10 -5 -10 -6 0
-9 -4 -5 -9 3 -5 1 -12 -5 -16 -6 -4 -8 -11 -5 -16 4 -5 1 -9 -5 -9 -7 0 -10
-7 -6 -15 3 -9 0 -15 -9 -15 -9 0 -12 -8 -10 -20 2 -11 0 -18 -6 -15 -8 5 -14
-15 -10 -38 0 -4 -3 -7 -8 -7 -7 0 -24 -42 -18 -46 1 -1 -7 -12 -18 -25 -13
-14 -14 -20 -5 -15 13 7 13 6 0 -6 -8 -7 -17 -22 -18 -33 -2 -11 -10 -27 -18
-36 -8 -8 -14 -23 -14 -32 0 -9 -5 -19 -10 -22 -6 -4 -8 -11 -5 -16 4 -5 1 -9
-4 -9 -6 0 -11 -9 -11 -20 0 -11 -4 -20 -10 -20 -5 0 -7 -7 -4 -15 4 -8 2 -15
-3 -15 -6 0 -16 -18 -23 -40 -7 -22 -17 -40 -22 -40 -4 0 -8 -9 -8 -19 0 -11
-5 -23 -10 -26 -6 -4 -8 -11 -5 -16 4 -5 1 -9 -6 -9 -7 0 -9 -3 -6 -7 4 -3 2
-12 -4 -20 -6 -7 -8 -13 -5 -13 4 0 0 -7 -8 -16 -9 -8 -14 -20 -11 -25 4 -5 1
-9 -4 -9 -6 0 -11 -8 -11 -17 0 -9 -6 -24 -14 -32 -7 -9 -16 -28 -20 -43 -7
-31 11 -33 42 -5 10 9 22 14 25 10 4 -3 7 -1 7 6 0 7 5 9 10 6 6 -3 13 0 16 9
3 8 14 13 24 11 10 -2 21 3 24 11 3 9 10 12 16 9 5 -3 10 -1 10 5 0 6 4 8 10
5 5 -3 10 -1 10 5 0 6 5 8 10 5 6 -3 13 1 16 9 3 9 10 14 14 11 5 -3 11 -1 15
5 4 6 11 8 16 5 5 -4 9 -1 9 5 0 6 5 8 10 5 5 -3 10 -1 10 5 0 6 4 9 9 6 5 -3
14 1 21 9 7 8 19 15 26 15 8 0 14 4 14 9 0 5 8 8 17 7 10 -2 26 5 37 15 10 10
23 16 27 13 4 -2 11 0 14 6 4 6 41 27 83 47 42 20 80 41 84 47 4 6 8 8 8 4 0
-4 29 8 64 27 35 18 67 31 70 28 3 -4 6 -2 6 3 0 6 16 16 35 24 19 8 35 17 35
21 0 4 16 10 35 13 20 4 33 11 30 17 -4 5 0 9 7 9 7 0 30 9 50 19 19 11 39 17
42 14 3 -4 6 1 6 10 0 10 5 14 15 11 8 -4 15 -1 15 6 0 7 6 10 14 7 8 -3 17 1
20 10 4 8 13 13 21 9 8 -3 15 -1 15 3 0 5 14 14 30 20 17 5 30 15 30 21 0 6 5
8 10 5 6 -3 23 3 39 14 15 11 31 18 35 14 3 -3 6 0 6 7 0 7 3 10 6 7 4 -4 20
3 35 14 16 11 33 18 38 15 5 -3 12 1 15 10 3 8 10 13 15 10 5 -4 11 -3 13 1 4
11 101 58 116 56 6 0 12 6 12 15 0 8 3 12 6 9 4 -3 16 -1 28 5 11 7 24 11 29
10 4 -1 7 3 7 9 0 6 7 8 17 5 10 -4 14 -4 11 0 -4 3 24 22 62 41 39 18 70 38
70 42 0 5 11 7 25 6 14 -2 23 0 21 4 -3 4 20 18 50 31 30 13 54 28 54 33 0 4
4 6 9 2 5 -3 12 -1 16 5 4 6 10 8 15 5 4 -3 11 2 14 11 3 8 10 12 16 9 5 -3
10 -1 10 6 0 7 3 9 7 6 3 -4 12 -2 20 4 7 6 13 8 13 3 0 -5 4 -4 8 1 12 18 65
48 57 34 -4 -9 -2 -9 7 1 7 8 18 16 23 17 6 1 39 17 73 37 35 19 60 30 56 23
-4 -7 1 -5 12 4 31 27 84 50 96 43 7 -5 8 -3 4 5 -8 12 16 24 38 21 5 -1 12 2
15 7 11 15 54 48 47 36 -4 -7 -2 -13 3 -13 6 0 11 4 11 9 0 5 14 14 30 21 17
7 30 17 30 22 0 5 4 7 9 3 5 -3 13 0 16 6 4 5 14 8 22 5 8 -3 11 -1 8 4 -3 6
3 10 14 10 12 0 21 4 21 9 0 8 37 24 53 22 4 -1 7 4 7 10 0 5 4 7 10 4 5 -3
10 -1 10 5 0 6 5 8 10 5 6 -3 10 -3 10 2 0 9 48 33 67 33 7 0 13 5 13 10 0 6
7 10 15 10 8 0 15 5 15 11 0 6 6 9 14 6 8 -3 20 1 27 9 6 8 14 12 17 10 2 -3
11 2 19 10 8 8 18 12 23 9 5 -3 11 -1 15 5 11 18 105 55 105 41 0 -5 11 -8 25
-6 14 1 25 -2 25 -6 0 -5 9 -9 21 -9 11 0 29 -5 40 -10 14 -8 19 -7 19 2 0 10
2 10 9 -1 5 -7 20 -13 35 -13 14 0 26 -5 26 -10 0 -6 9 -8 20 -5 11 3 22 1 25
-4 3 -4 12 -6 20 -2 8 3 15 1 15 -4 0 -8 27 -14 78 -17 12 0 22 -4 22 -8 0 -5
9 -8 21 -8 13 0 18 -4 13 -12 -5 -9 -2 -9 9 1 10 8 17 9 17 3 0 -6 9 -9 20 -7
11 2 20 -2 20 -8 0 -7 4 -6 10 3 5 8 10 10 10 4 0 -17 36 -24 51 -10 9 8 10 8
5 -2 -4 -6 -4 -13 1 -13 4 -1 17 -3 28 -4 11 -2 34 -8 50 -13 17 -5 38 -8 48
-6 9 1 15 -2 11 -7 -3 -5 8 -9 23 -9 16 0 35 -6 42 -12 11 -11 12 -10 6 1 -6
10 -4 12 6 5 17 -10 38 -15 62 -15 9 0 15 -3 13 -7 -4 -7 3 -9 59 -13 14 -1
25 -6 25 -12 0 -6 3 -7 6 -4 4 3 15 2 25 -3 12 -7 20 -6 25 1 5 8 9 7 14 -1 5
-7 23 -15 41 -17 18 -2 35 -7 38 -11 4 -4 17 -8 31 -10 34 -3 51 -7 79 -19 14
-5 35 -9 48 -7 13 1 23 -1 23 -5 0 -4 12 -8 27 -9 15 -1 30 -7 34 -13 4 -8 9
-8 13 -1 4 7 15 6 32 -3 15 -7 35 -12 45 -10 12 3 17 0 13 -7 -5 -7 0 -9 14
-6 12 4 22 2 22 -4 0 -6 7 -8 15 -5 8 4 17 1 21 -4 3 -6 15 -9 25 -6 11 3 19
1 19 -4 0 -4 7 -5 17 -2 12 5 14 3 8 -7 -5 -8 -4 -11 2 -7 17 11 74 -4 66 -17
-4 -7 -1 -7 7 1 9 8 19 9 31 2 10 -5 29 -10 43 -11 15 -1 26 -5 26 -9 0 -4 8
-6 18 -4 9 1 22 -1 27 -6 6 -4 20 -7 30 -5 11 2 23 -1 26 -7 4 -5 19 -11 35
-13 16 -1 47 -7 68 -13 22 -5 43 -8 47 -5 4 2 9 -1 11 -7 2 -6 19 -12 38 -14
19 -2 46 -8 60 -13 14 -5 35 -8 47 -7 12 1 20 -2 17 -7 -4 -7 34 -13 59 -9 4
0 7 -3 7 -9 0 -6 3 -9 8 -8 16 3 102 -15 102 -22 0 -4 11 -6 25 -5 14 2 28 -1
31 -7 4 -6 10 -5 15 3 7 11 9 9 9 -6 0 -17 2 -17 10 -5 7 12 10 12 10 1 0 -7
6 -11 14 -8 8 3 17 3 20 -1 4 -3 17 -8 29 -10 38 -6 42 -7 52 -14 6 -3 26 -7
45 -9 19 -2 38 -7 41 -12 3 -4 20 -9 37 -9 18 -1 32 -6 32 -12 0 -6 5 -4 10 4
6 10 10 11 10 3 0 -8 13 -13 31 -13 16 0 28 -3 25 -8 -2 -4 12 -8 32 -10 53
-3 62 -5 62 -11 0 -6 29 -12 73 -14 9 -1 17 -5 17 -10 0 -5 11 -7 25 -5 14 3
25 1 25 -4 0 -5 5 -6 10 -3 6 3 10 1 10 -5 0 -7 8 -9 20 -5 11 3 20 2 20 -3 0
-6 10 -8 22 -4 13 3 19 1 15 -5 -4 -6 4 -9 18 -7 14 1 25 -2 25 -7 0 -4 7 -6
15 -3 8 4 21 1 29 -5 7 -6 29 -12 49 -13 20 -2 37 -6 37 -10 0 -5 15 -8 34 -8
19 0 38 -5 41 -10 4 -6 10 -8 15 -5 5 3 12 0 16 -6 4 -8 9 -7 15 2 7 11 9 11
9 1 0 -7 4 -11 9 -7 5 3 12 1 16 -5 4 -6 11 -8 16 -4 5 3 17 0 26 -8 14 -11
16 -11 8 2 -7 12 -6 13 7 3 8 -7 18 -10 21 -6 4 3 7 2 7 -3 0 -5 14 -11 31
-12 18 -1 37 -6 43 -9 12 -8 27 -11 64 -15 12 -1 22 -5 22 -8 0 -3 8 -6 18 -7
49 -5 67 -9 72 -15 3 -4 20 -8 38 -10 18 -1 32 -5 32 -8 0 -3 14 -7 32 -8 17
-2 37 -7 44 -13 6 -5 16 -9 20 -8 24 4 65 -2 60 -9 -3 -4 5 -8 17 -9 53 -1 68
-3 63 -11 -2 -4 12 -8 32 -10 56 -3 62 -5 62 -14 0 -5 5 -6 10 -3 6 3 16 3 23
-2 6 -4 19 -8 27 -8 8 0 21 -4 28 -8 6 -5 17 -5 22 -2 6 3 10 1 10 -5 0 -6 5
-8 10 -5 6 4 17 1 25 -5 8 -7 22 -10 30 -6 8 3 15 1 15 -3 0 -5 11 -8 25 -6
14 1 25 -2 25 -8 0 -6 3 -8 6 -4 3 3 27 -1 52 -9 26 -7 57 -14 70 -14 12 0 22
-4 22 -8 0 -4 12 -9 28 -10 39 -3 63 -9 97 -23 17 -6 40 -11 53 -10 13 1 22
-3 22 -11 0 -10 3 -9 10 2 5 8 10 10 10 4 0 -6 7 -11 15 -12 8 -1 22 -3 30 -4
8 -1 15 -4 15 -8 0 -4 16 -6 36 -5 19 0 38 -3 40 -7 3 -4 14 -8 25 -8 10 0 19
-4 19 -8 0 -5 14 -8 30 -7 17 1 30 -2 30 -8 0 -5 7 -7 15 -3 8 3 15 2 15 -2 0
-4 14 -8 32 -9 17 -1 34 -6 37 -11 3 -4 18 -7 34 -7 18 1 27 -4 27 -15 0 -13
1 -13 10 0 7 10 13 11 18 5 4 -6 17 -10 30 -9 12 1 22 -3 22 -8 0 -5 4 -6 10
-3 5 3 10 2 10 -2 0 -5 17 -9 38 -11 53 -3 62 -5 62 -11 0 -6 29 -12 73 -14 9
-1 17 -5 17 -10 0 -4 4 -6 9 -2 5 3 12 1 16 -4 3 -5 14 -8 25 -6 11 2 20 0 20
-5 0 -5 9 -7 20 -5 11 2 20 0 20 -5 0 -4 9 -6 20 -3 11 3 20 1 20 -5 0 -6 9
-9 20 -7 11 2 20 0 20 -5 0 -4 9 -6 20 -3 11 3 20 1 20 -4 0 -5 10 -10 23 -11
41 -3 67 -8 73 -15 4 -4 17 -7 28 -7 12 0 32 -8 45 -17 14 -9 21 -11 17 -5 -9
15 -1 15 24 2 16 -9 18 -7 15 11 -2 12 -9 27 -16 35 -6 8 -9 14 -6 14 3 0 1
13 -4 30 -6 16 -15 30 -20 30 -4 0 -6 7 -3 15 4 8 2 21 -3 28 -5 6 -15 31 -23
55 -7 23 -18 42 -23 42 -5 0 -4 7 3 15 10 12 10 15 -3 15 -10 0 -14 6 -11 15
4 8 2 15 -3 15 -5 0 -10 12 -11 28 -1 15 -7 29 -12 30 -6 2 -10 17 -10 33 0
16 -4 29 -8 29 -5 0 -15 23 -22 50 -7 28 -17 50 -22 50 -4 0 -7 3 -6 7 3 11
-23 86 -35 101 -6 8 -5 12 4 12 9 0 10 3 3 8 -15 10 -37 52 -30 59 3 3 -4 21
-14 41 -11 19 -17 39 -14 44 3 4 0 8 -5 8 -6 0 -11 11 -11 25 0 14 -5 25 -12
25 -6 0 -8 3 -5 7 4 3 1 13 -6 21 -10 13 -9 14 3 7 10 -5 9 -1 -3 13 -11 11
-16 25 -13 30 3 6 -1 13 -10 16 -14 5 -14 9 -3 23 10 12 10 14 2 9 -12 -6 -16
4 -12 30 0 4 -4 10 -10 13 -6 4 -12 16 -14 26 -2 11 -9 31 -17 45 -7 14 -13
26 -12 28 6 7 -13 59 -25 74 -8 9 -12 21 -9 27 4 5 2 12 -4 16 -6 4 -8 11 -5
16 4 5 2 9 -3 9 -5 0 -9 7 -10 15 -1 8 -3 22 -4 30 -1 8 -5 15 -10 15 -5 0 -6
5 -3 10 3 6 1 10 -5 10 -6 0 -10 6 -9 13 3 28 -2 48 -11 42 -6 -3 -7 1 -4 9 3
9 2 16 -4 16 -6 0 -9 8 -8 18 2 9 -1 20 -6 23 -5 3 -10 16 -11 27 -1 12 -5 22
-9 22 -4 0 -8 11 -8 25 0 14 -4 25 -10 25 -5 0 -10 11 -10 25 0 14 -4 25 -9
25 -5 0 -8 12 -8 26 0 15 -6 30 -13 34 -7 4 -10 14 -8 21 3 8 -1 21 -9 30 -8
9 -15 26 -16 38 -1 11 -5 21 -10 21 -4 0 -6 4 -2 9 3 5 1 12 -5 16 -6 4 -8 11
-5 16 4 5 2 9 -4 9 -6 0 -8 7 -5 15 4 8 1 15 -6 15 -6 0 -9 4 -5 9 3 5 1 12
-4 16 -6 3 -7 13 -4 22 5 12 3 14 -7 8 -8 -5 -11 -4 -7 2 4 6 0 23 -8 39 -7
15 -12 31 -9 36 3 4 0 8 -7 8 -7 0 -9 3 -6 7 4 3 -1 15 -10 26 -13 15 -14 18
-3 12 12 -6 13 -5 3 6 -7 7 -13 20 -13 29 0 16 -18 60 -41 103 -5 10 -7 22 -4
27 4 6 1 10 -6 10 -7 0 -9 3 -6 7 4 3 -1 15 -10 26 -13 15 -14 18 -3 12 12 -7
13 -6 3 7 -7 8 -10 18 -6 21 3 4 1 7 -5 7 -6 0 -9 9 -7 20 2 11 0 18 -4 15 -7
-4 -22 38 -25 70 -1 6 -7 16 -14 23 -7 8 -10 17 -7 22 3 4 -2 13 -10 20 -8 7
-15 23 -15 37 0 13 -7 37 -15 53 -9 17 -12 30 -8 30 5 0 3 4 -3 8 -7 4 -14 18
-15 32 -2 14 -9 31 -16 38 -7 7 -10 19 -7 27 4 8 1 15 -5 15 -6 0 -11 11 -11
25 0 14 -4 25 -9 25 -8 0 -25 56 -22 73 0 4 -3 7 -9 7 -5 0 -7 7 -4 15 4 8 1
15 -6 15 -7 0 -10 7 -6 15 3 8 2 15 -3 15 -4 0 -8 7 -9 15 -1 8 -3 22 -4 30
-1 8 -5 15 -10 15 -5 0 -6 5 -3 10 3 6 1 10 -5 10 -6 0 -9 4 -5 9 3 5 1 12 -5
16 -6 4 -8 11 -5 16 4 5 0 16 -8 24 -9 8 -14 23 -13 32 2 10 -3 24 -11 32 -8
7 -12 20 -9 27 3 8 2 14 -3 14 -4 0 -14 22 -21 50 -7 27 -18 50 -22 50 -5 0
-7 3 -5 8 3 4 0 18 -6 32 -5 14 -12 34 -14 45 -2 11 -8 22 -13 23 -6 2 -10 15
-10 28 0 14 -4 22 -10 19 -6 -3 -7 1 -4 10 4 8 1 22 -6 30 -7 8 -9 15 -4 15 4
0 3 5 -4 12 -7 7 -12 20 -12 30 0 10 -4 18 -8 18 -4 0 -9 12 -10 28 -1 15 -7
29 -12 30 -6 2 -10 11 -10 20 0 22 -23 82 -31 82 -3 0 -6 12 -6 27 0 15 -5 29
-11 31 -5 1 -8 12 -5 22 3 12 0 20 -6 20 -7 0 -9 5 -6 10 3 6 1 10 -5 10 -6 0
-8 5 -5 10 3 6 0 10 -7 10 -9 0 -9 3 2 10 8 5 10 10 3 10 -12 0 -35 55 -26 64
4 3 1 6 -6 6 -7 0 -10 4 -6 9 3 5 0 13 -6 16 -5 4 -8 13 -5 21 3 8 -1 17 -10
21 -13 5 -13 7 -2 14 10 7 11 9 0 9 -7 0 -10 5 -7 10 3 6 1 10 -4 10 -6 0 -11
12 -11 26 0 14 -4 23 -9 20 -5 -4 -8 2 -7 11 2 10 -3 28 -11 40 -8 12 -12 27
-8 33 3 5 1 10 -5 10 -7 0 -10 6 -7 14 3 8 2 16 -3 18 -4 2 -10 12 -12 23 -1
11 -7 23 -11 26 -4 3 -10 18 -13 34 -3 15 -9 36 -14 45 -5 10 -6 20 -3 24 3 3
1 6 -5 6 -7 0 -12 9 -12 19 0 11 -5 23 -10 26 -6 4 -8 11 -5 16 4 5 1 9 -5 9
-6 0 -8 5 -5 10 3 6 3 16 -2 23 -4 6 -8 14 -9 17 0 3 -6 18 -12 33 -7 16 -12
35 -12 43 0 8 -4 14 -8 14 -4 0 -9 12 -10 28 -1 15 -7 29 -12 30 -6 2 -8 8 -4
13 3 5 1 9 -5 9 -6 0 -8 7 -5 15 4 8 2 15 -3 15 -5 0 -9 10 -10 22 -1 11 -8
25 -15 29 -7 5 -10 9 -6 9 4 0 -1 22 -12 50 -11 27 -16 50 -12 50 4 0 1 4 -5
8 -7 5 -14 20 -15 35 -1 15 -5 27 -8 27 -9 0 -30 62 -24 71 3 5 0 9 -6 9 -6 0
-8 5 -5 10 3 6 1 10 -5 10 -6 0 -9 4 -5 9 3 5 -2 16 -10 25 -11 11 -12 17 -4
22 9 5 6 11 -6 21 -11 7 -15 13 -11 13 5 0 2 8 -5 17 -12 15 -12 16 1 8 12 -7
12 -4 -1 11 -9 10 -20 34 -24 51 -3 18 -11 35 -16 38 -5 4 -9 17 -9 31 0 14
-4 23 -9 19 -6 -3 -8 4 -6 15 2 11 0 20 -5 20 -5 0 -7 7 -4 15 3 8 -1 22 -10
31 -9 8 -14 20 -11 25 4 5 1 9 -6 9 -7 0 -9 3 -6 6 3 4 1 16 -5 28 -7 11 -11
25 -10 30 2 4 -2 14 -9 22 -6 7 -8 18 -4 24 3 5 1 10 -4 10 -6 0 -11 9 -11 19
0 11 -4 22 -8 25 -4 3 -14 28 -22 55 -7 28 -18 51 -22 51 -5 0 -6 5 -3 10 3 6
0 10 -7 10 -11 0 -11 2 0 9 10 6 10 10 -3 21 -9 7 -14 19 -11 26 3 7 -2 15 -9
18 -8 3 -12 14 -10 25 2 11 -1 23 -6 26 -5 4 -7 11 -4 16 4 5 2 9 -3 9 -4 0
-15 23 -22 50 -7 28 -18 50 -23 50 -5 0 -3 8 4 17 10 11 10 14 2 9 -12 -6 -18
5 -14 27 0 4 -5 7 -12 7 -8 0 -7 4 3 10 8 5 10 10 4 10 -13 0 -36 48 -29 60 3
4 -2 13 -11 20 -8 7 -13 18 -11 25 3 6 -1 19 -9 30 -8 10 -14 29 -14 42 0 13
-5 23 -11 23 -5 0 -7 5 -4 10 3 6 2 10 -3 10 -5 0 -9 6 -10 13 -1 22 -11 57
-19 70 -4 6 -9 21 -10 32 -2 11 -8 22 -13 23 -6 2 -10 17 -10 33 0 16 -4 29
-10 29 -5 0 -10 8 -10 19 0 10 -7 31 -14 47 -8 15 -13 31 -10 36 3 4 0 8 -5 8
-6 0 -11 11 -11 25 0 14 -5 25 -11 25 -5 0 -7 5 -4 10 3 6 2 10 -4 10 -5 0 -8
8 -7 18 4 21 -14 62 -26 62 -5 0 -6 5 -3 10 4 6 1 17 -5 25 -6 8 -9 19 -5 25
3 5 1 10 -5 10 -7 0 -10 7 -6 15 3 8 1 15 -5 15 -6 0 -8 4 -5 9 4 5 2 11 -4
13 -5 1 -11 15 -12 31 -1 15 -5 27 -8 27 -4 0 -13 23 -20 50 -7 28 -18 50 -23
50 -6 0 -8 3 -4 6 3 4 0 19 -8 35 -18 34 -19 42 -2 33 6 -4 1 4 -12 19 -12 14
-20 30 -16 36 3 6 2 11 -4 11 -5 0 -8 9 -6 19 2 11 -3 22 -11 25 -7 3 -11 12
-8 21 3 8 2 15 -3 15 -5 0 -10 6 -10 13 -1 17 -7 41 -13 47 -12 12 -31 81 -25
90 4 6 1 9 -7 8 -7 -2 -12 3 -10 11 1 7 -2 19 -8 25 -5 7 -7 16 -3 19 3 4 1 7
-6 7 -7 0 -10 4 -6 9 3 5 0 13 -6 16 -5 4 -8 13 -5 21 3 8 2 14 -3 14 -4 0 -8
7 -9 15 -1 8 -3 22 -4 30 -1 8 -5 12 -10 9 -7 -5 -12 18 -9 39 0 4 -3 7 -7 7
-4 0 -9 12 -10 28 -1 15 -7 29 -12 30 -6 2 -8 8 -4 13 3 5 1 9 -5 9 -6 0 -8 7
-5 15 4 8 1 15 -5 15 -6 0 -8 6 -5 14 3 7 -1 20 -8 27 -8 8 -14 25 -15 38 -1
13 -8 28 -15 32 -7 5 -9 9 -4 9 4 0 1 12 -9 26 -9 15 -12 23 -6 20 7 -5 9 -1
5 8 -3 9 -9 16 -13 16 -4 0 -7 9 -8 21 -1 11 -11 39 -23 61 -11 22 -16 37 -10
33 6 -3 7 0 4 9 -3 9 -11 16 -17 16 -6 0 -7 3 -4 7 4 3 0 17 -8 30 -9 13 -13
28 -10 33 3 5 0 12 -6 15 -5 4 -8 13 -5 21 3 8 1 14 -4 14 -6 0 -10 9 -10 20
0 11 -5 20 -12 20 -6 0 -9 3 -5 6 6 6 -10 55 -40 122 -8 18 -12 41 -8 50 3 9
3 13 -1 9 -9 -9 -34 39 -36 70 -1 12 -6 23 -10 23 -4 0 -8 11 -8 25 0 14 -5
25 -11 25 -6 0 -9 7 -5 15 3 8 0 20 -7 27 -7 7 -14 24 -16 38 -1 14 -6 27 -10
30 -4 3 -13 25 -20 50 -7 25 -18 51 -25 59 -9 12 -8 13 2 7 11 -7 11 -4 0 13
-7 12 -17 21 -22 21 -4 0 -2 8 5 17 10 11 10 14 2 9 -9 -5 -13 0 -13 14 0 11
-4 28 -9 38 -26 51 -33 71 -27 80 3 5 -1 13 -10 16 -11 4 -14 13 -11 27 3 11
0 22 -7 25 -6 2 -13 14 -13 27 -1 12 -7 23 -13 25 -5 2 -7 8 -4 13 3 6 0 16
-6 24 -7 8 -10 15 -7 15 3 0 0 12 -8 27 -8 15 -12 30 -9 35 3 4 0 8 -6 8 -6 0
-9 4 -5 9 3 5 1 12 -5 16 -6 4 -8 11 -5 16 4 5 1 9 -4 9 -6 0 -11 14 -11 30 0
17 -4 30 -10 30 -5 0 -10 12 -10 26 0 17 -4 23 -12 18 -7 -5 -9 -2 -5 8 3 9
-1 27 -8 42 -8 14 -11 26 -8 26 3 0 0 6 -6 13 -6 8 -8 17 -4 20 3 4 1 7 -6 7
-7 0 -10 4 -6 9 3 5 1 12 -5 16 -6 4 -8 11 -5 16 4 5 -1 16 -9 25 -9 9 -14 19
-11 24 3 5 1 11 -4 15 -6 3 -7 13 -4 22 5 12 3 14 -7 8 -9 -5 -11 -4 -6 3 4 7
0 21 -8 33 -8 12 -12 28 -9 35 3 8 1 14 -4 14 -5 0 -10 6 -11 13 -2 23 -27 87
-34 87 -4 0 -5 7 -2 15 4 8 1 15 -5 15 -6 0 -8 7 -5 15 4 8 1 15 -5 15 -6 0
-11 11 -11 24 0 14 -4 28 -10 31 -5 3 -10 11 -10 16 0 6 6 7 13 3 11 -7 -8 22
-24 36 -7 7 -34 103 -31 113 1 4 -4 10 -12 13 -8 3 -12 12 -9 20 3 8 1 14 -4
14 -5 0 -10 12 -11 27 -1 15 -8 30 -15 35 -6 4 -8 8 -3 8 5 0 3 6 -3 13 -6 8
-8 17 -4 20 3 4 2 7 -4 7 -5 0 -10 6 -11 13 -2 28 -12 57 -29 83 -11 18 -13
25 -4 20 8 -6 7 1 -4 18 -10 14 -13 26 -9 26 5 0 4 4 -1 8 -12 8 -35 71 -35
95 0 9 -4 17 -10 17 -5 0 -10 11 -10 24 0 14 -4 28 -10 31 -5 3 -10 15 -10 26
0 10 -4 19 -9 19 -5 0 -8 11 -7 25 2 13 -1 23 -7 22 -5 -1 -11 7 -12 18 -2 11
-11 39 -19 63 -9 24 -13 48 -10 54 4 7 2 8 -4 4 -7 -4 -12 -1 -12 7 0 7 -9 33
-21 56 -11 24 -18 46 -15 49 3 3 -2 14 -11 25 -13 15 -14 18 -3 12 13 -8 13
-7 0 11 -8 10 -15 21 -16 22 -2 2 -10 -10 -18 -27z m409 -4565 c0 -34 3 -66 8
-73 4 -6 3 -14 -4 -18 -8 -6 -8 -10 2 -16 11 -6 11 -11 2 -20 -10 -10 -9 -17
4 -31 9 -10 11 -18 5 -18 -12 0 -4 -38 12 -59 8 -11 8 -13 -2 -7 -9 6 -11 1
-8 -19 3 -15 7 -30 10 -32 3 -3 1 -16 -4 -29 -6 -14 -6 -26 0 -29 6 -4 10 -13
10 -21 0 -10 -5 -12 -12 -8 -10 6 -10 4 0 -8 7 -8 13 -41 15 -72 1 -31 7 -56
12 -56 7 0 7 -3 0 -8 -14 -10 -17 -32 -4 -32 8 0 8 -4 0 -14 -7 -9 -8 -17 -2
-20 5 -3 10 -21 10 -38 5 -118 7 -144 14 -155 4 -6 3 -15 -3 -18 -7 -4 -7 -11
-2 -18 5 -7 10 -30 11 -52 1 -22 2 -64 3 -92 2 -29 5 -53 9 -53 3 0 5 -21 4
-47 0 -27 3 -54 8 -60 6 -8 6 -13 -1 -13 -6 0 -7 -13 -2 -35 4 -19 6 -35 3
-35 -3 0 -1 -6 6 -13 8 -10 7 -17 -1 -25 -8 -8 -9 -12 -1 -12 12 0 12 -18 0
-37 -4 -6 -3 -14 2 -17 5 -3 10 -22 10 -41 1 -19 2 -51 3 -70 1 -19 5 -35 9
-35 5 0 4 -11 -1 -25 -5 -14 -6 -25 -2 -25 4 0 8 -19 9 -42 3 -98 7 -128 17
-128 7 0 7 -3 1 -8 -12 -9 -18 -52 -7 -52 4 0 8 -9 9 -20 1 -11 -4 -20 -10
-20 -9 0 -9 -2 -1 -8 14 -9 24 -72 11 -72 -5 0 -5 -5 1 -13 6 -7 9 -25 8 -40
-2 -15 1 -30 6 -33 5 -3 4 -12 -3 -20 -7 -9 -8 -14 -1 -14 6 0 8 -13 5 -31 -3
-24 -2 -29 9 -23 10 6 10 4 -1 -9 -11 -14 -11 -17 0 -17 10 0 11 -2 2 -8 -7
-4 -9 -13 -4 -21 5 -7 7 -26 5 -42 -2 -18 1 -29 9 -29 8 0 7 -4 -3 -10 -12 -8
-12 -10 -1 -10 10 0 11 -3 2 -14 -9 -11 -9 -16 0 -21 8 -6 7 -10 -2 -16 -8 -5
-9 -9 -4 -9 6 0 12 -16 13 -37 2 -20 5 -41 9 -46 3 -5 -1 -13 -8 -18 -8 -5 -9
-9 -4 -9 6 0 10 -20 10 -45 -1 -25 3 -45 7 -45 5 0 4 -10 -3 -21 -8 -15 -8
-19 0 -15 6 4 11 0 11 -9 0 -10 -5 -13 -12 -9 -10 6 -10 4 0 -8 7 -8 13 -43
14 -77 1 -34 7 -61 13 -61 5 0 3 -5 -5 -10 -13 -9 -13 -10 0 -10 13 0 13 -1 0
-10 -8 -5 -10 -10 -4 -10 6 0 10 -22 10 -56 -1 -31 2 -58 7 -61 4 -2 5 -9 1
-14 -3 -5 0 -17 8 -26 9 -12 9 -15 1 -9 -8 4 -13 1 -13 -8 0 -9 5 -16 10 -16
7 0 7 -6 0 -19 -6 -12 -6 -22 -1 -25 5 -3 8 -24 7 -46 -1 -22 2 -40 7 -40 6 0
5 -5 -1 -12 -5 -7 -6 -22 -2 -33 4 -11 5 -25 3 -31 -2 -7 1 -15 7 -19 8 -5 8
-11 -1 -21 -6 -8 -7 -14 -2 -14 5 0 10 -7 10 -15 0 -8 -4 -15 -9 -15 -5 0 -6
-6 -1 -12 4 -7 9 -26 10 -43 4 -75 11 -126 17 -132 3 -3 1 -12 -5 -20 -6 -7
-7 -13 -3 -13 5 0 10 -17 11 -37 3 -103 9 -163 16 -163 4 0 3 -9 -3 -20 -6
-11 -7 -20 -1 -20 12 0 9 -33 -4 -42 -6 -5 -6 -8 1 -8 11 0 15 -25 16 -107 1
-24 5 -43 10 -43 5 0 4 -9 -2 -20 -7 -13 -7 -20 -1 -20 6 0 8 -13 6 -30 -2
-16 0 -32 3 -34 4 -2 7 -34 7 -70 -1 -40 3 -66 10 -66 5 0 4 -4 -3 -9 -17 -10
-17 -22 -1 -32 10 -6 10 -11 -2 -25 -8 -10 -9 -15 -3 -11 7 4 11 -4 12 -23 0
-16 -6 -31 -14 -34 -8 -3 -14 -2 -14 3 0 5 -19 21 -42 37 -24 16 -45 32 -46
37 -2 4 -8 5 -13 1 -5 -3 -9 0 -9 5 0 6 -9 11 -20 11 -12 0 -20 7 -20 17 0 9
-3 14 -6 10 -3 -3 -16 3 -27 14 -12 11 -32 22 -44 25 -13 4 -23 13 -23 21 0 8
-4 11 -10 8 -5 -3 -10 -1 -10 4 0 6 -9 11 -19 11 -10 0 -21 7 -25 15 -3 8 -12
15 -21 15 -8 0 -15 5 -15 10 0 6 -7 10 -15 10 -8 0 -15 5 -15 10 0 6 -6 10
-14 10 -8 0 -16 4 -18 9 -1 5 -10 11 -18 13 -8 2 -22 11 -31 21 -9 9 -21 17
-26 17 -5 0 -19 9 -31 21 -21 19 -35 20 -282 22 -143 1 -260 -2 -260 -6 0 -5
-5 -5 -12 -1 -16 10 -68 11 -68 1 0 -5 -5 -5 -12 -1 -16 10 -68 11 -68 1 0 -5
-5 -5 -12 -1 -16 10 -68 11 -68 1 0 -5 -5 -5 -12 -1 -16 10 -68 11 -68 1 0 -5
-5 -5 -12 -1 -16 10 -68 11 -68 1 0 -5 -5 -5 -12 -1 -16 10 -68 11 -68 1 0 -5
-5 -5 -12 -1 -16 10 -68 11 -68 1 0 -5 -5 -5 -10 -2 -16 10 -1350 11 -1350 2
0 -5 -5 -5 -12 -1 -16 10 -68 11 -68 1 0 -5 -5 -5 -12 -1 -16 10 -68 11 -68 1
0 -5 -5 -5 -12 -1 -17 10 -68 11 -68 0 0 -5 -6 -3 -14 3 -10 8 -16 9 -21 1 -3
-6 -11 -7 -17 -4 -16 10 -68 11 -68 1 0 -5 -5 -5 -12 -1 -16 10 -68 11 -68 1
0 -5 -6 -5 -12 0 -7 4 -37 6 -67 5 l-54 -2 19 22 c10 13 26 30 34 40 8 9 26
31 40 49 14 18 33 40 43 48 9 9 17 21 17 28 0 7 5 13 10 13 6 0 10 7 10 16 0
8 4 13 9 10 5 -3 20 12 35 34 14 22 31 40 36 40 6 0 10 6 10 13 0 6 17 30 38
52 21 22 41 48 45 58 4 10 11 15 17 12 5 -3 10 1 10 9 0 9 5 16 10 16 6 0 10
5 10 10 0 6 14 24 30 42 17 17 30 35 30 39 0 5 7 9 15 9 9 0 12 6 8 17 -4 11
-3 14 5 9 7 -4 12 -2 12 6 0 7 12 23 27 35 14 13 23 23 19 23 -4 0 7 13 24 30
16 16 30 33 30 38 0 5 10 18 23 29 26 24 59 63 52 63 -2 0 11 15 30 34 18 19
31 37 28 40 -4 3 1 6 10 6 10 0 16 3 14 8 -2 7 58 84 101 128 13 13 21 24 18
24 -3 0 5 11 17 24 30 31 87 99 87 102 0 3 40 51 68 81 12 13 22 26 22 29 0 3
6 11 13 18 6 7 30 34 52 61 22 27 48 57 58 67 9 10 17 20 17 23 0 3 8 13 18
23 9 10 33 38 52 62 19 25 45 55 57 67 12 13 20 23 17 23 -3 0 5 11 18 23 13
13 35 39 50 58 14 19 35 44 45 56 10 12 27 32 38 45 11 12 19 26 17 31 -1 4 5
7 14 7 8 0 12 5 9 10 -3 6 -2 10 4 10 5 0 18 13 27 29 10 17 21 28 26 25 4 -3
8 0 8 5 0 12 25 45 53 70 9 8 17 20 17 26 0 6 9 17 19 25 11 7 18 17 15 22 -3
4 -1 8 4 8 12 0 128 142 124 153 -1 4 1 6 5 5 5 -2 8 -1 8 2 0 3 15 20 34 38
19 17 31 32 27 32 -4 0 4 10 17 23 13 12 32 34 41 49 10 15 22 25 27 22 5 -3
9 2 9 10 0 13 30 52 93 118 9 10 17 21 17 26 0 4 8 15 18 23 23 21 84 96 99
123 7 12 12 17 13 11 0 -5 8 2 17 15 10 14 15 26 13 28 -3 2 5 9 17 15 12 7
23 17 25 22 3 12 27 43 50 63 9 9 15 19 12 24 -3 4 2 8 10 8 9 0 15 3 13 8 -1
4 7 17 18 28 11 12 27 31 35 42 9 12 30 37 48 57 18 19 29 35 26 35 -4 0 3 8
14 19 12 10 22 24 22 30 0 7 4 10 8 7 5 -3 17 9 27 27 22 38 41 58 47 51 3 -2
11 9 18 25 6 16 18 32 27 35 8 3 11 11 7 17 -4 8 -3 9 4 5 10 -6 36 27 37 47
0 4 3 6 7 5 4 -2 15 8 25 22 24 34 43 58 76 92 15 16 27 31 27 35 0 3 11 16
26 29 14 13 22 24 18 24 -4 0 3 8 14 19 12 10 22 23 22 30 0 6 7 11 16 11 8 0
12 5 9 10 -3 6 -1 10 4 10 6 0 11 6 11 14 0 8 7 17 16 20 8 3 12 10 9 16 -3 5
1 10 9 10 9 0 16 3 16 8 0 4 15 24 33 44 17 21 43 52 57 69 14 18 32 39 40 48
8 8 16 18 16 23 3 16 4 17 22 15 14 -1 17 -11 17 -61z"/>
</g>
</svg>
