<?xml version="1.0" encoding="utf-8"?>
<!-- Generator: Adobe Illustrator 24.2.3, SVG Export Plug-In . SVG Version: 6.00 Build 0)  -->
<svg version="1.1" id="OBJECTS" xmlns="http://www.w3.org/2000/svg" xmlns:xlink="http://www.w3.org/1999/xlink" x="0px" y="0px"
	 viewBox="0 0 750 500" style="enable-background:new 0 0 750 500;" xml:space="preserve">
<style type="text/css">
	.st0{fill:#104478;}
	.st1{fill:#2B5D8F;}
	.st2{fill:#FCDFD7;}
	
		.st3{clip-path:url(#SVGID_2_);fill:none;stroke:#0069AA;stroke-width:2.0972;stroke-linecap:round;stroke-linejoin:round;stroke-miterlimit:10;}
	.st4{fill:#E7EFFE;stroke:#0069AA;stroke-width:2.0972;stroke-linecap:round;stroke-linejoin:round;stroke-miterlimit:10;}
	
		.st5{fill:none;stroke:#F47952;stroke-width:2.0972;stroke-linecap:round;stroke-linejoin:round;stroke-miterlimit:10;stroke-dasharray:9.3575;}
	.st6{fill:#F47952;}
	.st7{fill:#F9F0E5;}
	.st8{fill:#FFFFFF;}
	.st9{fill:#FFFDFF;}
	.st10{fill:#F89777;}
	.st11{clip-path:url(#SVGID_4_);enable-background:new    ;}
	.st12{clip-path:url(#SVGID_6_);enable-background:new    ;}
	.st13{fill:#EE463B;}
	.st14{fill:#F7BFC3;}
	.st15{fill:none;stroke:#104478;stroke-width:0.415;stroke-linecap:round;stroke-miterlimit:10;}
	.st16{fill:none;stroke:#F47952;stroke-width:0.5163;stroke-linecap:round;stroke-miterlimit:10;}
	.st17{fill:none;stroke:#F7BFC3;stroke-width:0.9963;stroke-miterlimit:10;}
	.st18{clip-path:url(#SVGID_12_);}
	.st19{opacity:0.7;clip-path:url(#SVGID_14_);}
</style>
<g>
	<g>
		<g>
			<g>
				<path class="st0" d="M380.13,197.13L380.13,197.13c-4.84,0-8.77-3.93-8.77-8.77v-0.84h17.54v0.84
					C388.9,193.21,384.98,197.13,380.13,197.13z"/>
				<path class="st1" d="M388.94,189.73h-17.62c-1.95,0-3.53-1.58-3.53-3.53v-16.47h24.68v16.47
					C392.47,188.15,390.89,189.73,388.94,189.73z"/>
				<path class="st0" d="M393.9,179.21h-27.54c-0.72,0-1.3-0.58-1.3-1.3l0,0c0-0.72,0.58-1.3,1.3-1.3h27.54c0.72,0,1.3,0.58,1.3,1.3
					l0,0C395.2,178.63,394.62,179.21,393.9,179.21z"/>
				<path class="st0" d="M393.9,184.52h-27.54c-0.72,0-1.3-0.58-1.3-1.3l0,0c0-0.72,0.58-1.3,1.3-1.3h27.54c0.72,0,1.3,0.58,1.3,1.3
					l0,0C395.2,183.94,394.62,184.52,393.9,184.52z"/>
				<path class="st2" d="M417.54,116.85c0-20.66-16.75-37.41-37.41-37.41c-20.66,0-37.41,16.75-37.41,37.41
					c0,14.58,8.35,27.21,20.52,33.38v15.85c0,4.45,3.61,8.06,8.06,8.06h17.66c4.45,0,8.06-3.61,8.06-8.06v-15.85
					C409.19,144.06,417.54,131.44,417.54,116.85z"/>
				<g>
					<defs>
						<path id="SVGID_1_" d="M417.54,116.85c0-20.66-16.75-37.41-37.41-37.41c-20.66,0-37.41,16.75-37.41,37.41
							c0,14.58,8.35,27.21,20.52,33.38v15.85c0,4.45,3.61,8.06,8.06,8.06h17.66c4.45,0,8.06-3.61,8.06-8.06v-15.85
							C409.19,144.06,417.54,131.44,417.54,116.85z"/>
					</defs>
					<clipPath id="SVGID_2_">
						<use xlink:href="#SVGID_1_"  style="overflow:visible;"/>
					</clipPath>
					<path class="st3" d="M370.79,174.79v-26.95v-15.19c0-1.56,1.89-2.34,2.99-1.24v0l2.99,2.99l2.06-1.9c0.67-0.62,1.7-0.62,2.37,0
						l2.06,1.9l2.99-2.99v0c1.1-1.1,2.99-0.32,2.99,1.24v15.19v26.95"/>
				</g>
			</g>
			<g>
				<line class="st4" x1="380.13" y1="72.28" x2="380.13" y2="59.09"/>
				<g>
					<line class="st4" x1="371.39" y1="72.93" x2="362.07" y2="63.6"/>
					<line class="st4" x1="388.87" y1="72.93" x2="398.2" y2="63.6"/>
				</g>
			</g>
			<g>
				<g>
					<line class="st4" x1="332.76" y1="119.31" x2="319.57" y2="119.31"/>
					<g>
						<line class="st4" x1="333.41" y1="128.05" x2="324.08" y2="137.38"/>
						<line class="st4" x1="333.41" y1="110.57" x2="324.08" y2="101.24"/>
					</g>
				</g>
				<g>
					<line class="st4" x1="427.51" y1="119.31" x2="440.7" y2="119.31"/>
					<g>
						<line class="st4" x1="426.86" y1="110.57" x2="436.19" y2="101.24"/>
						<line class="st4" x1="426.86" y1="128.05" x2="436.19" y2="137.38"/>
					</g>
				</g>
			</g>
		</g>
		<path class="st5" d="M171.3,207.42c0,0,40.93,21.08,72.63-2.97c31.7-24.05,22.44-45.28,11.28-53.01
			c-11.16-7.72-26,7.02-14.17,24.96c11.83,17.94,70.51,35.66,116.22-21.12"/>
		<g>
			<path class="st5" d="M512.19,132.39c-0.12,1-0.24,1.99-0.38,2.98c-0.71,4.93-1.75,9.69-3.24,14.19
				c-6.32,19.19-20.61,33.62-50.56,35.48c-6.34,0.39-12.59,0.13-18.77-0.57c-6.18-0.7-12.31-1.83-18.4-3.16"/>
			<path class="st5" d="M565.25,119.13c-33.89,5.53-61.14,5.44-80.94-0.03c-19.8-5.47-32.16-16.31-36.28-32.28
				c-4.12-15.97,10.77-26.72,27.16-28.26c36.15-2.2,37.78,45.8,37.87,55.43"/>
		</g>
		<g>
			<path class="st6" d="M633.03,76.67l-1.78-6.36l-6.53,8.95v3.74l-19,23.66l-0.31-0.17c-0.65-0.36-1.39-0.54-2.13-0.54
				c-2.45,0-4.44,1.99-4.44,4.44c0,2.45,1.99,4.44,4.44,4.44c2.45,0,4.44-1.99,4.44-4.44c0-0.82-0.23-1.63-0.67-2.33l-0.17-0.28
				l21.14-22.09l3.47-0.45l8.04-7.62L633.03,76.67z"/>
			<path class="st1" d="M620.4,94.87c3.55,3.93,5.72,9.14,5.72,14.85c0,12.22-9.94,22.16-22.16,22.16
				c-12.22,0-22.16-9.94-22.16-22.16c0-12.22,9.94-22.16,22.16-22.16c4.75,0,9.15,1.51,12.77,4.06l4.22-5.26
				c-4.77-3.48-10.64-5.54-16.98-5.54c-15.93,0-28.89,12.96-28.89,28.89c0,15.93,12.96,28.89,28.89,28.89
				c15.93,0,28.9-12.96,28.9-28.89c0-7.62-2.97-14.55-7.8-19.71L620.4,94.87z"/>
			<path class="st1" d="M612.49,103.14c1.41,1.82,2.26,4.1,2.26,6.58c0,5.95-4.84,10.78-10.78,10.78c-5.95,0-10.78-4.84-10.78-10.78
				c0-5.95,4.84-10.78,10.78-10.78c2.06,0,3.98,0.59,5.61,1.6l4.24-5.28c-2.81-1.92-6.2-3.05-9.85-3.05
				c-9.66,0-17.52,7.86-17.52,17.52s7.86,17.52,17.52,17.52c9.66,0,17.52-7.86,17.52-17.52c0-4.39-1.63-8.39-4.31-11.47
				L612.49,103.14z"/>
		</g>
		<g>
			<path class="st1" d="M161.59,159.32c-0.64-10.93-9.68-19.61-20.78-19.61h0c-11.51,0-20.84,9.33-20.84,20.84v3.66l-7.78,7.78
				l7.78,7.78v2.99c0,8.45,5.03,15.7,12.26,18.97v4.81h29.42v-23.79v-22.21v-1.23H161.59z"/>
			
				<ellipse transform="matrix(0.7071 -0.7071 0.7071 0.7071 -74.0861 147.4137)" class="st2" cx="140.9" cy="163.14" rx="17.06" ry="17.06"/>
			<path class="st6" d="M147.23,160.94h-4.51v-4.51c0-1.18-0.96-2.14-2.14-2.14c-1.18,0-2.14,0.96-2.14,2.14v4.51h-4.51
				c-1.18,0-2.14,0.96-2.14,2.14c0,1.18,0.96,2.14,2.14,2.14h4.51v4.51c0,1.18,0.96,2.14,2.14,2.14c1.18,0,2.14-0.96,2.14-2.14
				v-4.51h4.51c1.18,0,2.14-0.96,2.14-2.14C149.37,161.9,148.41,160.94,147.23,160.94z"/>
		</g>
	</g>
	<g>
		<path class="st1" d="M195.18,253.14c0,0.57-0.47,1.04-1.04,1.04h-5.2c-0.57,0-1.04-0.47-1.04-1.04c0-0.57,0.47-1.04,1.04-1.04h5.2
			C194.71,252.1,195.18,252.57,195.18,253.14z M184.77,253.14c0,0.57-0.47,1.04-1.04,1.04h-5.2c-0.57,0-1.04-0.47-1.04-1.04
			c0-0.57,0.47-1.04,1.04-1.04h5.2C184.31,252.1,184.77,252.57,184.77,253.14z M174.37,253.14c0,0.57-0.47,1.04-1.04,1.04h-2.97
			c-0.57,0-1.04-0.47-1.04-1.04c0-0.57,0.47-1.04,1.04-1.04h2.97C173.9,252.1,174.37,252.57,174.37,253.14z"/>
		<path class="st1" d="M703.22,312.18c0,0.57-0.47,1.04-1.04,1.04h-5.2c-0.57,0-1.04-0.47-1.04-1.04c0-0.57,0.47-1.04,1.04-1.04h5.2
			C702.75,311.14,703.22,311.61,703.22,312.18z M692.81,312.18c0,0.57-0.47,1.04-1.04,1.04h-5.2c-0.57,0-1.04-0.47-1.04-1.04
			c0-0.57,0.47-1.04,1.04-1.04h5.2C692.35,311.14,692.81,311.61,692.81,312.18z M682.41,312.18c0,0.57-0.47,1.04-1.04,1.04h-2.97
			c-0.57,0-1.04-0.47-1.04-1.04c0-0.57,0.47-1.04,1.04-1.04h2.97C681.94,311.14,682.41,311.61,682.41,312.18z"/>
		<path class="st1" d="M485.97,83.26c0,2.32-1.88,4.2-4.2,4.2c-2.32,0-4.2-1.88-4.2-4.2c0-2.32,1.88-4.2,4.2-4.2
			C484.09,79.06,485.97,80.94,485.97,83.26z M483.89,83.26c0-1.17-0.95-2.12-2.12-2.12c-1.17,0-2.12,0.95-2.12,2.12
			c0,1.17,0.95,2.12,2.12,2.12C482.94,85.38,483.89,84.43,483.89,83.26z"/>
		<g>
			<path class="st1" d="M181.12,74.32h-23.78c-0.57,0-1.04,0.47-1.04,1.04c0,0.57,0.47,1.04,1.04,1.04h23.78
				c0.57,0,1.04-0.47,1.04-1.04C182.16,74.79,181.69,74.32,181.12,74.32z"/>
			<path class="st1" d="M149.77,74.32h-4.65c-0.57,0-1.04,0.47-1.04,1.04c0,0.57,0.47,1.04,1.04,1.04h4.65
				c0.57,0,1.04-0.47,1.04-1.04C150.81,74.78,150.34,74.32,149.77,74.32z"/>
			<path class="st1" d="M169.94,82.61c0,0.57-0.47,1.04-1.04,1.04h-2.97c-0.57,0-1.04-0.47-1.04-1.04c0-0.57,0.47-1.04,1.04-1.04
				h2.97C169.48,81.57,169.94,82.03,169.94,82.61z M161.77,82.61c0,0.57-0.47,1.04-1.04,1.04h-5.2c-0.57,0-1.04-0.47-1.04-1.04
				c0-0.57,0.47-1.04,1.04-1.04h5.2C161.3,81.57,161.77,82.03,161.77,82.61z M151.36,82.61c0,0.57-0.47,1.04-1.04,1.04h-5.2
				c-0.57,0-1.04-0.47-1.04-1.04c0-0.57,0.47-1.04,1.04-1.04h5.2C150.9,81.57,151.36,82.03,151.36,82.61z"/>
		</g>
		<g>
			<path class="st1" d="M544.09,162.69c-0.57,0-1.04,0.47-1.04,1.04v2.41c0,0.57,0.47,1.04,1.04,1.04c0.57,0,1.04-0.47,1.04-1.04
				v-2.41C545.13,163.15,544.66,162.69,544.09,162.69z"/>
			<path class="st1" d="M541.37,160.27h-2.41c-0.57,0-1.04,0.47-1.04,1.04c0,0.57,0.47,1.04,1.04,1.04h2.41
				c0.57,0,1.04-0.47,1.04-1.04C542.41,160.73,541.94,160.27,541.37,160.27z"/>
			<path class="st1" d="M544.09,155.27c-0.57,0-1.04,0.47-1.04,1.04v2.41c0,0.57,0.47,1.04,1.04,1.04c0.57,0,1.04-0.47,1.04-1.04
				v-2.41C545.13,155.73,544.66,155.27,544.09,155.27z"/>
			<path class="st1" d="M549.23,160.1h-2.41c-0.57,0-1.04,0.47-1.04,1.04c0,0.57,0.47,1.04,1.04,1.04h2.41
				c0.57,0,1.04-0.47,1.04-1.04C550.27,160.57,549.8,160.1,549.23,160.1z"/>
		</g>
		<path class="st1" d="M195.1,162.82c0,2.03,1.64,3.67,3.67,3.67c2.03,0,3.67-1.64,3.67-3.67c0-2.03-1.64-3.67-3.67-3.67
			C196.74,159.14,195.1,160.79,195.1,162.82z"/>
		<g>
			<path class="st1" d="M633.56,161.39h23.78c0.57,0,1.04-0.47,1.04-1.04c0-0.57-0.47-1.04-1.04-1.04h-23.78
				c-0.57,0-1.04,0.47-1.04,1.04C632.52,160.92,632.98,161.39,633.56,161.39z"/>
			<path class="st1" d="M664.91,161.39h4.65c0.57,0,1.04-0.47,1.04-1.04c0-0.57-0.47-1.04-1.04-1.04h-4.65
				c-0.57,0-1.04,0.47-1.04,1.04C663.87,160.93,664.33,161.39,664.91,161.39z"/>
			<path class="st1" d="M644.73,153.1c0-0.57,0.47-1.04,1.04-1.04h2.97c0.57,0,1.04,0.47,1.04,1.04c0,0.57-0.47,1.04-1.04,1.04
				h-2.97C645.2,154.14,644.73,153.68,644.73,153.1z M652.91,153.1c0-0.57,0.47-1.04,1.04-1.04h5.2c0.57,0,1.04,0.47,1.04,1.04
				c0,0.57-0.47,1.04-1.04,1.04h-5.2C653.37,154.14,652.91,153.68,652.91,153.1z M663.31,153.1c0-0.57,0.47-1.04,1.04-1.04h5.2
				c0.57,0,1.04,0.47,1.04,1.04c0,0.57-0.47,1.04-1.04,1.04h-5.2C663.78,154.14,663.31,153.68,663.31,153.1z"/>
		</g>
		<g>
			<path class="st1" d="M570.64,56.86c0.57,0,1.04-0.47,1.04-1.04v-2.41c0-0.57-0.47-1.04-1.04-1.04c-0.57,0-1.04,0.47-1.04,1.04
				v2.41C569.6,56.39,570.07,56.86,570.64,56.86z"/>
			<path class="st1" d="M573.37,59.28h2.41c0.57,0,1.04-0.47,1.04-1.04c0-0.57-0.47-1.04-1.04-1.04h-2.41
				c-0.57,0-1.04,0.47-1.04,1.04C572.33,58.81,572.79,59.28,573.37,59.28z"/>
			<path class="st1" d="M570.64,64.28c0.57,0,1.04-0.47,1.04-1.04v-2.41c0-0.57-0.47-1.04-1.04-1.04c-0.57,0-1.04,0.47-1.04,1.04
				v2.41C569.6,63.81,570.07,64.28,570.64,64.28z"/>
			<path class="st1" d="M565.51,59.45h2.41c0.57,0,1.04-0.47,1.04-1.04c0-0.57-0.47-1.04-1.04-1.04h-2.41
				c-0.57,0-1.04,0.47-1.04,1.04C564.47,58.98,564.93,59.45,565.51,59.45z"/>
		</g>
		<g>
			<path class="st1" d="M112.5,282.05H88.71c-0.57,0-1.04,0.47-1.04,1.04c0,0.57,0.47,1.04,1.04,1.04h23.78
				c0.57,0,1.04-0.47,1.04-1.04C113.54,282.52,113.07,282.05,112.5,282.05z"/>
			<path class="st1" d="M81.15,282.05H76.5c-0.57,0-1.04,0.47-1.04,1.04c0,0.57,0.47,1.04,1.04,1.04h4.65
				c0.57,0,1.04-0.47,1.04-1.04C82.19,282.52,81.72,282.05,81.15,282.05z"/>
			<path class="st1" d="M101.32,290.34c0,0.57-0.47,1.04-1.04,1.04h-2.97c-0.57,0-1.04-0.47-1.04-1.04c0-0.57,0.47-1.04,1.04-1.04
				h2.97C100.86,289.3,101.32,289.76,101.32,290.34z M93.15,290.34c0,0.57-0.47,1.04-1.04,1.04h-5.2c-0.57,0-1.04-0.47-1.04-1.04
				c0-0.57,0.47-1.04,1.04-1.04h5.2C92.68,289.3,93.15,289.76,93.15,290.34z M82.74,290.34c0,0.57-0.47,1.04-1.04,1.04h-5.2
				c-0.57,0-1.04-0.47-1.04-1.04c0-0.57,0.47-1.04,1.04-1.04h5.2C82.28,289.3,82.74,289.76,82.74,290.34z"/>
		</g>
		<g>
			<path class="st1" d="M162.05,328.65c-0.57,0-1.04,0.47-1.04,1.04v2.41c0,0.57,0.47,1.04,1.04,1.04c0.57,0,1.04-0.47,1.04-1.04
				v-2.41C163.09,329.11,162.62,328.65,162.05,328.65z"/>
			<path class="st1" d="M159.33,326.23h-2.41c-0.57,0-1.04,0.47-1.04,1.04c0,0.57,0.47,1.04,1.04,1.04h2.41
				c0.57,0,1.04-0.47,1.04-1.04C160.37,326.69,159.9,326.23,159.33,326.23z"/>
			<path class="st1" d="M162.05,321.23c-0.57,0-1.04,0.47-1.04,1.04v2.41c0,0.57,0.47,1.04,1.04,1.04c0.57,0,1.04-0.47,1.04-1.04
				v-2.41C163.09,321.69,162.62,321.23,162.05,321.23z"/>
			<path class="st1" d="M167.19,326.06h-2.41c-0.57,0-1.04,0.47-1.04,1.04c0,0.57,0.47,1.04,1.04,1.04h2.41
				c0.57,0,1.04-0.47,1.04-1.04C168.23,326.53,167.76,326.06,167.19,326.06z"/>
		</g>
		<path class="st1" d="M582.22,276.23c0,0,0.81,5.79-5.95,5.65c0,0,5.81,0.06,5.65,5.49c0,0,0.52-4.27,5.85-5.23
			C587.77,282.14,583.27,283.17,582.22,276.23z"/>
		<path class="st1" d="M297.29,53.86c0,0,0.81,5.79-5.95,5.65c0,0,5.81,0.06,5.65,5.49c0,0,0.52-4.27,5.85-5.22
			C302.85,59.78,298.35,60.81,297.29,53.86z"/>
		<path class="st1" d="M50.41,235.15c0,0,0.49,3.53-3.63,3.45c0,0,3.55,0.04,3.45,3.35c0,0,0.32-2.61,3.57-3.19
			C53.8,238.76,51.06,239.39,50.41,235.15z"/>
		<path class="st1" d="M464.95,146.34c0,0,0.49,3.53-3.63,3.45c0,0,3.55,0.04,3.45,3.35c0,0,0.32-2.61,3.57-3.19
			C468.34,149.95,465.6,150.58,464.95,146.34z"/>
		<g>
			<path class="st1" d="M606.83,212.81h-23.09c-2.95,0-5.36-2.4-5.36-5.36c0-2.9,2.31-5.26,5.19-5.35c0.08-4.51,3.77-8.15,8.29-8.15
				c2.81,0,5.42,1.43,6.94,3.76c3.11-0.44,5.89,1.51,6.68,4.38h1.35c2.95,0,5.36,2.4,5.36,5.36
				C612.18,210.41,609.78,212.81,606.83,212.81z M583.73,203.68c-2.08,0-3.77,1.69-3.77,3.77c0,2.08,1.69,3.77,3.77,3.77h23.09
				c2.08,0,3.77-1.69,3.77-3.77c0-2.08-1.69-3.77-3.77-3.77h-2.67l-0.11-0.67c-0.4-2.52-2.8-4.28-5.47-3.65l-0.58,0.14l-0.29-0.52
				c-1.19-2.13-3.43-3.45-5.86-3.45c-3.7,0-6.71,3.01-6.71,6.71c0,0.2,0.01,0.39,0.03,0.58l0.07,0.86H583.73z"/>
		</g>
		<g>
			<path class="st1" d="M266,103.13h-23.09c-2.95,0-5.36-2.4-5.36-5.36c0-2.9,2.31-5.26,5.19-5.35c0.08-4.51,3.77-8.15,8.29-8.15
				c2.81,0,5.42,1.43,6.94,3.76c3.11-0.44,5.89,1.51,6.68,4.38H266c2.95,0,5.36,2.4,5.36,5.36
				C271.36,100.73,268.95,103.13,266,103.13z M242.91,94c-2.08,0-3.77,1.69-3.77,3.77c0,2.08,1.69,3.77,3.77,3.77H266
				c2.08,0,3.77-1.69,3.77-3.77c0-2.08-1.69-3.77-3.77-3.77h-2.67l-0.11-0.67c-0.4-2.52-2.8-4.28-5.47-3.65l-0.58,0.14l-0.29-0.52
				c-1.19-2.13-3.43-3.45-5.86-3.45c-3.7,0-6.71,3.01-6.71,6.71c0,0.2,0.01,0.39,0.03,0.58l0.07,0.86H242.91z"/>
		</g>
		<g>
			<path class="st1" d="M689.77,103.27h-23.09c-2.95,0-5.36-2.4-5.36-5.36c0-2.9,2.31-5.26,5.19-5.35c0.08-4.51,3.77-8.15,8.29-8.15
				c2.81,0,5.42,1.43,6.94,3.76c3.11-0.45,5.89,1.51,6.68,4.38h1.35c2.95,0,5.36,2.4,5.36,5.36
				C695.13,100.87,692.73,103.27,689.77,103.27z M666.68,94.14c-2.08,0-3.77,1.69-3.77,3.77c0,2.08,1.69,3.77,3.77,3.77h23.09
				c2.08,0,3.77-1.69,3.77-3.77c0-2.08-1.69-3.77-3.77-3.77h-2.67L687,93.47c-0.4-2.52-2.79-4.29-5.47-3.65l-0.58,0.14l-0.29-0.52
				c-1.19-2.13-3.43-3.45-5.86-3.45c-3.7,0-6.71,3.01-6.71,6.71c0,0.2,0.01,0.39,0.03,0.58l0.07,0.86H666.68z"/>
		</g>
		<path class="st1" d="M101.5,106.5h-2.32v-2.32c0-0.61-0.49-1.1-1.1-1.1c-0.61,0-1.1,0.49-1.1,1.1v2.32h-2.32
			c-0.61,0-1.1,0.49-1.1,1.1c0,0.61,0.49,1.1,1.1,1.1h2.32v2.32c0,0.61,0.49,1.1,1.1,1.1c0.61,0,1.1-0.49,1.1-1.1v-2.32h2.32
			c0.61,0,1.1-0.49,1.1-1.1C102.6,106.99,102.11,106.5,101.5,106.5z"/>
		<path class="st1" d="M661.77,243.39h-2.32v-2.32c0-0.61-0.49-1.1-1.1-1.1c-0.61,0-1.1,0.49-1.1,1.1v2.32h-2.32
			c-0.61,0-1.1,0.49-1.1,1.1c0,0.61,0.49,1.1,1.1,1.1h2.32v2.32c0,0.61,0.49,1.1,1.1,1.1c0.61,0,1.1-0.49,1.1-1.1v-2.32h2.32
			c0.61,0,1.1-0.49,1.1-1.1C662.87,243.88,662.38,243.39,661.77,243.39z"/>
		<path class="st1" d="M505.4,199.07h-2.32v-2.32c0-0.61-0.49-1.1-1.1-1.1c-0.61,0-1.1,0.49-1.1,1.1v2.32h-2.32
			c-0.61,0-1.1,0.49-1.1,1.1c0,0.61,0.49,1.1,1.1,1.1h2.32v2.32c0,0.61,0.49,1.1,1.1,1.1c0.61,0,1.1-0.49,1.1-1.1v-2.32h2.32
			c0.61,0,1.1-0.49,1.1-1.1C506.5,199.56,506.01,199.07,505.4,199.07z"/>
	</g>
	<g>
		<g>
			<path class="st0" d="M97.04,451.06c23.6-0.35,47.2-0.5,70.81-0.75l70.81-0.43c23.6-0.19,47.2-0.15,70.81-0.22l70.81-0.14
				l70.81,0.14c23.6,0.07,47.2,0.03,70.81,0.22l70.81,0.43c23.6,0.26,47.2,0.41,70.81,0.76c-23.6,0.35-47.2,0.5-70.81,0.76
				l-70.81,0.43c-23.6,0.19-47.2,0.14-70.81,0.22l-70.81,0.14l-70.81-0.14c-23.6-0.07-47.2-0.03-70.81-0.22l-70.81-0.43
				C144.24,451.56,120.64,451.4,97.04,451.06z"/>
		</g>
		<g>
			<g>
				<path class="st0" d="M226.68,225.9h307.16c4.82,0,8.72,3.9,8.72,8.72v191.41c0,4.82-3.9,8.72-8.72,8.72H226.68
					c-4.82,0-8.72-3.9-8.72-8.72V234.61C217.96,229.8,221.86,225.9,226.68,225.9z"/>
				<g>
					<g>
						<path class="st1" d="M397.34,233.73c0,1.22-0.99,2.22-2.22,2.22c-1.22,0-2.22-0.99-2.22-2.22c0-1.22,0.99-2.22,2.22-2.22
							C396.35,231.51,397.34,232.5,397.34,233.73z"/>
						<path class="st1" d="M367.61,233.73c0,1.22-0.99,2.22-2.22,2.22c-1.22,0-2.22-0.99-2.22-2.22c0-1.22,0.99-2.22,2.22-2.22
							C366.61,231.51,367.61,232.5,367.61,233.73z"/>
					</g>
					<path class="st1" d="M386.71,234.94h-12.9c-0.67,0-1.22-0.54-1.22-1.22l0,0c0-0.67,0.54-1.22,1.22-1.22h12.9
						c0.67,0,1.22,0.54,1.22,1.22l0,0C387.93,234.4,387.38,234.94,386.71,234.94z"/>
				</g>
			</g>
			<g>
				<g>
					<path class="st1" d="M230.52,435.55h-25.82l0,0c0-2.57,2.08-4.65,4.65-4.65h16.52C228.44,430.9,230.52,432.98,230.52,435.55
						L230.52,435.55z"/>
					<path class="st1" d="M263.05,435.55h-25.82l0,0c0-2.57,2.08-4.65,4.65-4.65h16.52C260.97,430.9,263.05,432.98,263.05,435.55
						L263.05,435.55z"/>
					<path class="st1" d="M295.58,435.55h-25.82l0,0c0-2.57,2.08-4.65,4.65-4.65h16.52C293.5,430.9,295.58,432.98,295.58,435.55
						L295.58,435.55z"/>
					<path class="st1" d="M328.11,435.55h-25.82l0,0c0-2.57,2.08-4.65,4.65-4.65h16.52C326.03,430.9,328.11,432.98,328.11,435.55
						L328.11,435.55z"/>
					<path class="st1" d="M360.64,435.55h-25.82l0,0c0-2.57,2.08-4.65,4.65-4.65h16.52C358.56,430.9,360.64,432.98,360.64,435.55
						L360.64,435.55z"/>
					<path class="st1" d="M393.17,435.55h-25.82l0,0c0-2.57,2.08-4.65,4.65-4.65h16.52C391.09,430.9,393.17,432.98,393.17,435.55
						L393.17,435.55z"/>
					<path class="st1" d="M425.69,435.55h-25.82l0,0c0-2.57,2.08-4.65,4.65-4.65h16.52C423.61,430.9,425.69,432.98,425.69,435.55
						L425.69,435.55z"/>
					<path class="st1" d="M458.22,435.55h-25.82l0,0c0-2.57,2.08-4.65,4.65-4.65h16.52C456.14,430.9,458.22,432.98,458.22,435.55
						L458.22,435.55z"/>
					<path class="st1" d="M490.75,435.55h-25.82l0,0c0-2.57,2.08-4.65,4.65-4.65h16.52C488.67,430.9,490.75,432.98,490.75,435.55
						L490.75,435.55z"/>
					<path class="st1" d="M523.28,435.55h-25.82l0,0c0-2.57,2.08-4.65,4.65-4.65h16.52C521.2,430.9,523.28,432.98,523.28,435.55
						L523.28,435.55z"/>
					<path class="st1" d="M555.81,435.55h-25.82l0,0c0-2.57,2.08-4.65,4.65-4.65h16.52C553.73,430.9,555.81,432.98,555.81,435.55
						L555.81,435.55z"/>
				</g>
				<path class="st1" d="M201.35,451.06h357.82c9.66,0,17.48-7.83,17.48-17.48l0,0H183.87l0,0
					C183.87,443.23,191.69,451.06,201.35,451.06z"/>
				<rect x="183.87" y="433.57" class="st0" width="392.78" height="6.99"/>
			</g>
			<g>
				<path class="st7" d="M236.03,241.05h288.46c1.13,0,2.04,0.91,2.04,2.04v174.46c0,1.13-0.91,2.04-2.04,2.04H236.03
					c-1.13,0-2.04-0.91-2.04-2.04V243.09C233.98,241.96,234.9,241.05,236.03,241.05z"/>
				<g>
					<g>
						<path class="st8" d="M249.07,245.36h262.37c4.2,0,7.61,3.41,7.61,7.61v157.24c0,2.34-1.9,4.25-4.25,4.25h-269.1
							c-2.34,0-4.25-1.9-4.25-4.25V252.97C241.46,248.77,244.87,245.36,249.07,245.36z"/>
					</g>
					<path class="st6" d="M249.07,245.36h262.37c4.2,0,7.61,3.41,7.61,7.61v12.85H241.46v-12.85
						C241.46,248.77,244.87,245.36,249.07,245.36z"/>
					<path class="st9" d="M259.5,256.02c0,0.92-0.74,1.66-1.66,1.66c-0.92,0-1.66-0.74-1.66-1.66c0-0.92,0.74-1.66,1.66-1.66
						C258.76,254.36,259.5,255.1,259.5,256.02z"/>
					<circle class="st9" cx="265.03" cy="256.02" r="1.66"/>
					<circle class="st9" cx="272.22" cy="256.02" r="1.66"/>
				</g>
				<g>
					<g>
						<g>
							<polygon class="st0" points="391.4,415.69 386.07,415.69 384.74,408.98 390.07,408.98 							"/>
						</g>
						<g>
							<polygon class="st0" points="388.74,399.38 383.41,399.38 380.8,381.34 386.13,381.34 							"/>
						</g>
						<g>
							<polygon class="st10" points="368.25,415.69 362.91,415.69 373.16,371.74 378.49,371.74 							"/>
						</g>
						<g>
							<path class="st6" d="M393.71,371.74l10.19,43.95H391.4l-1.33-6.71h-8.12l-1.21,6.71h-12.49l10.25-43.95H393.71z
								 M383.22,399.38h5.52l-2.61-18.04h-0.12L383.22,399.38"/>
						</g>
					</g>
					<g>
						<g>
							<defs>
								<path id="SVGID_3_" d="M343.42,390.27h-5.33c2,0,2.17-0.92,2.17-5.17c0-3.64,0.2-4.5-2.53-4.5h5.33
									c2.73,0,4.49,0.86,4.49,4.5C347.54,389.34,345.42,390.27,343.42,390.27z"/>
							</defs>
							<use xlink:href="#SVGID_3_"  style="overflow:visible;fill:#104478;"/>
							<clipPath id="SVGID_4_">
								<use xlink:href="#SVGID_3_"  style="overflow:visible;"/>
							</clipPath>
							<g class="st11">
								<path class="st0" d="M343.42,390.27h-5.33c0.34,0,0.68-0.03,1.01-0.09h5.33C344.09,390.24,343.75,390.27,343.42,390.27"/>
								<path class="st0" d="M344.42,390.18h-5.33c0.32-0.06,0.64-0.16,0.94-0.3h5.33C345.06,390.02,344.75,390.12,344.42,390.18"/>
								<path class="st0" d="M345.36,389.88h-5.33c1.23-0.59,0.44-1.94,0.44-4.78c0-3.64-0.03-4.5-2.76-4.5h5.33
									c2.73,0,4.49,0.86,4.49,4.5C347.54,387.94,346.59,389.29,345.36,389.88"/>
							</g>
						</g>
						<g>
							<polygon class="st0" points="341.66,390.27 336.33,390.27 338.08,390.27 343.42,390.27 							"/>
						</g>
						<g>
							<defs>
								<path id="SVGID_5_" d="M348.32,415.69h-5.33c-0.78-0.98-1.84-4.18-1.84-6.34c0-2.15-0.34-4.37-0.34-6.53
									c0-3.76-0.12-4.44-2.25-4.44h5.33c2.12,0,3.34,0.68,3.34,4.44c0,2.15,0.18,4.37,0.18,6.53
									C347.41,411.51,347.54,414.71,348.32,415.69z"/>
							</defs>
							<use xlink:href="#SVGID_5_"  style="overflow:visible;fill:#104478;"/>
							<clipPath id="SVGID_6_">
								<use xlink:href="#SVGID_5_"  style="overflow:visible;"/>
							</clipPath>
							<g class="st12">
								<path class="st0" d="M348.32,415.69h-5.33c-0.78-0.98-2.07-4.18-2.07-6.34c0-2.15-0.34-4.37-0.34-6.53
									c0-3.76,0.1-4.44-2.02-4.44h5.33c2.12,0,3.34,0.68,3.34,4.44c0,2.15,0.18,4.37,0.18,6.53
									C347.41,411.51,347.54,414.71,348.32,415.69"/>
							</g>
						</g>
						<g>
							<rect x="324.2" y="371.74" class="st10" width="5.33" height="43.95"/>
						</g>
						<g>
							<path class="st6" d="M359.91,413.78c0.3,0.61,0.72,1.04,1.27,1.29v0.61h-12.86c-0.78-0.98-0.91-4.18-0.91-6.34
								c0-2.15-0.18-4.37-0.18-6.53c0-3.76-1.21-4.44-3.34-4.44h-2.24v17.3h-12.13v-43.95h18.19c8.37,0,11.94,4.18,11.94,11.51
								c0,7.02-2.97,9.97-7.22,10.59v0.12c2.43,0.19,4.61,1.41,5.76,3.51c1.09,1.97,1.15,4.93,1.15,7.51v3.63
								C359.36,411.08,359.6,413.17,359.91,413.78z M343.42,390.27c2,0,4.12-0.92,4.12-5.17c0-3.64-1.76-4.5-4.49-4.5h-1.39v9.67
								H343.42"/>
						</g>
					</g>
					<g>
						<g>
							<g>
								<g>
									<path class="st0" d="M272.33,409.57l12.3,3.78c0.32,0.09,0.53,0.39,0.53,0.72l0,0h-14.78L272.33,409.57z"/>
									<path class="st0" d="M270.44,415.64h14.8c0.19,0,0.34-0.15,0.34-0.34v-0.9c0-0.19-0.15-0.34-0.34-0.34h-14.8
										c-0.19,0-0.34,0.15-0.34,0.34v0.9C270.11,415.48,270.26,415.64,270.44,415.64z"/>
									<path class="st13" d="M272.99,410.27l4.77,1.55l0.07-3.32c0.01-0.2-0.15-0.37-0.36-0.38l-4.4-0.16
										c-0.64-0.02-1.18,0.48-1.2,1.12l0,0C271.85,409.71,272.35,410.24,272.99,410.27z"/>
								</g>
								<path class="st0" d="M274.46,408.32l3.05,3.7l11.14-14.83c0.83-1.12,0.6-2.7-0.51-3.53l-4.82-2.57l-8.98,11.94
									C273.15,404.61,273.2,406.8,274.46,408.32z"/>
								<path class="st0" d="M289.13,396.57c1.53-3.13-0.64-6.81-4.12-6.98l-20.76-0.85c-1.71-0.09-3.16,1.22-3.25,2.93l-0.34,6.61
									l23.88,0.99C286.47,399.37,288.28,398.31,289.13,396.57L289.13,396.57z"/>
							</g>
							<g>
								<ellipse class="st1" cx="261.53" cy="391.17" rx="8.61" ry="7.95"/>
								<g>
									<path class="st0" d="M258.38,410.07l-11.63,5.49c-0.3,0.14-0.65,0.07-0.88-0.17l0,0l10.92-9.95L258.38,410.07z"/>
									<path class="st0" d="M244.75,414.28c-0.14,0.13-0.15,0.34-0.02,0.48l0.61,0.67c0.13,0.14,0.34,0.15,0.48,0.02l10.94-9.97
										c0.14-0.13,0.15-0.34,0.02-0.48l-0.61-0.67c-0.13-0.14-0.34-0.15-0.48-0.02"/>
									<path class="st0" d="M256.88,409.73l-4.17,2.92l3.36,2.17c0.17,0.11,0.4,0.05,0.51-0.12l2.28-3.76
										c0.33-0.55,0.16-1.26-0.39-1.59l0,0C257.92,409,257.21,409.18,256.88,409.73z"/>
								</g>
								<path class="st1" d="M267.84,414.34l-12.75-20.98l9.07-5.24l12.75,20.98c1.45,2.5,0.59,5.71-1.92,7.15v0
									C272.48,417.7,269.28,416.84,267.84,414.34z"/>
								<path class="st1" d="M275.61,413.76c0.65-2.61-1.29-5.16-3.98-5.23l-12.39-0.32c-2.1-0.07-3.98,1.31-4.55,3.33l-1.38,4.92
									l18.1,0.49C273.38,417.01,275.13,415.68,275.61,413.76L275.61,413.76z"/>
							</g>
						</g>
						<g>
							<g>
								<g>
									<path class="st14" d="M291.46,386.76l12.85,0.26l0.14-4.76L291.6,382c-1.31-0.04-2.41,0.99-2.45,2.31v0
										C289.11,385.63,290.15,386.72,291.46,386.76z"/>
									<g>
										<g>
											<path class="st14" d="M304.36,381.47l0.79-0.87c0.4-0.44,0.36-1.13-0.08-1.53l0,0c-0.44-0.4-1.13-0.36-1.53,0.08
												l-0.79,0.87c-0.4,0.44-0.36,1.13,0.08,1.53l0,0C303.28,381.95,303.96,381.91,304.36,381.47z"/>
											<path class="st14" d="M302.6,379.77c-0.83,0.42-1.16,1.43-0.74,2.25c0.42,0.83,1.43,1.16,2.25,0.74
												c0.83-0.42,1.16-1.43,0.74-2.25C304.43,379.68,303.42,379.35,302.6,379.77z"/>
										</g>
										<path class="st14" d="M299.93,382.83c-0.56,1.85,0.49,3.8,2.34,4.36s3.8-0.49,4.36-2.34c0.56-1.85-0.49-3.8-2.34-4.36
											C302.44,379.93,300.49,380.97,299.93,382.83z"/>
										<g>
											<path class="st14" d="M304.02,384.79l3.88,0.93c0.6,0.12,1.19-0.27,1.31-0.87l0,0c0.12-0.6-0.27-1.19-0.87-1.31
												l-3.88-0.93c-0.6-0.12-1.19,0.27-1.31,0.87l0,0C303.03,384.08,303.42,384.67,304.02,384.79z"/>
										</g>
										<g>
											<path class="st14" d="M303.42,384.03l2.78,0.58c0.58,0.12,1.13-0.16,1.22-0.63l0,0c0.09-0.47-0.3-0.94-0.88-1.06
												l-2.78-0.58c-0.58-0.12-1.13,0.16-1.22,0.63l0,0C302.45,383.44,302.84,383.92,303.42,384.03z"/>
										</g>
									</g>
								</g>
								<g>
									<path class="st14" d="M292.29,382.31l-5.2-3.68l-5.21-3.68c-0.57-0.4-1.26-0.53-1.89-0.42c-0.64,0.11-1.24,0.46-1.64,1.03
										l0,0l0,0c-0.41,0.58-0.55,1.27-0.44,1.91c0.11,0.65,0.47,1.25,1.05,1.66l5.19,3.66l5.19,3.66c0.57,0.41,1.26,0.55,1.9,0.44
										c0.64-0.11,1.25-0.46,1.66-1.03l0,0l0,0c0.41-0.57,0.55-1.26,0.44-1.9C293.22,383.32,292.86,382.72,292.29,382.31z"/>
									<path class="st2" d="M288.05,378.89l-5.68-4.01c-0.65-0.46-1.43-0.61-2.16-0.48c-0.73,0.13-1.41,0.53-1.87,1.17l0,0l0,0
										c-0.47,0.66-0.62,1.44-0.5,2.18c0.13,0.74,0.54,1.42,1.2,1.89l5.9,4.17L288.05,378.89z"/>
									<path class="st2" d="M279.43,381.07c2.32,0.75,4.8-0.53,5.54-2.84c0.75-2.32-0.53-4.8-2.84-5.54
										c-2.32-0.75-4.8,0.53-5.54,2.84C275.84,377.84,277.12,380.33,279.43,381.07z"/>
								</g>
							</g>
							<g>
								<g>
									<defs>
										<path id="SVGID_7_" d="M306.16,375.45l-5.26-0.87c2.63,0.44,4.13-1.19,4.6-4.04c0.48-2.92-0.15-5.39-2.9-5.85l5.26,0.87
											c2.75,0.46,3.39,2.93,2.9,5.85C310.29,374.26,308.79,375.88,306.16,375.45z"/>
									</defs>
									<use xlink:href="#SVGID_7_"  style="overflow:visible;fill:#104478;"/>
									<clipPath id="SVGID_8_">
										<use xlink:href="#SVGID_7_"  style="overflow:visible;"/>
									</clipPath>
								</g>
								<g>
									<defs>
										<path id="SVGID_9_" d="M308.77,357.84l-5.26-0.87c1.56,0.26,3.63-0.4,4.15-3.56c0.46-2.79-0.5-4.39-2.95-4.8l5.26,0.87
											c2.45,0.41,3.41,2,2.95,4.8C312.4,357.45,310.32,358.1,308.77,357.84z"/>
									</defs>
									<use xlink:href="#SVGID_9_"  style="overflow:visible;fill:#104478;"/>
									<clipPath id="SVGID_10_">
										<use xlink:href="#SVGID_9_"  style="overflow:visible;"/>
									</clipPath>
								</g>
								<g>
									<polygon class="st0" points="304.07,375.1 298.81,374.23 300.9,374.57 306.16,375.45 									"/>
								</g>
								<g>
									<polygon class="st0" points="306.97,357.55 301.72,356.67 303.51,356.97 308.77,357.84 									"/>
								</g>
								<g>
									
										<rect x="269.64" y="357.08" transform="matrix(0.1634 -0.9866 0.9866 0.1634 -110.9471 588.6474)" class="st10" width="43.95" height="5.33"/>
								</g>
								<g>
									<path class="st6" d="M316.78,362.85c2.35,0.64,7.6,2.76,6.15,11.5c-1.44,8.68-7.04,11.69-14.39,10.47l-17.89-2.96
										l7.18-43.36l17.23,2.85c7.48,1.24,11.37,5.56,10.19,12.73c-1.13,6.8-5.65,8.48-8.44,8.65L316.78,362.85z M306.16,375.45
										c2.63,0.44,4.13-1.19,4.6-4.04c0.48-2.92-0.15-5.39-2.9-5.85l-2.15-0.36l-1.64,9.9L306.16,375.45 M308.35,349.22
										l-1.38,8.32l1.79,0.3c1.56,0.26,3.63-0.4,4.15-3.56c0.46-2.79-0.5-4.39-2.95-4.8L308.35,349.22"/>
								</g>
							</g>
							<g>
								<g>
									<path class="st2" d="M283.63,376.57L283.63,376.57c-1.41-4.14-6.14-6.31-10.58-4.84l-11.8,3.81
										c-4.44,1.47-6.9,6.02-5.49,10.16l0,0c1.41,4.14,6.14,6.31,10.58,4.84l11.8-3.81C282.58,385.26,285.03,380.71,283.63,376.57
										z"/>
									<path class="st2" d="M270.88,391.1l-18.95,1.33c-0.26,0.02-0.49-0.26-0.51-0.62c0,0,0,0,0-0.01
										c-0.5-10.42,6.78-18.37,12.33-14.92l2.2,3.32C268.58,381.84,270.54,386.16,270.88,391.1L270.88,391.1z"/>
								</g>
								<g>
									<g>
										<path class="st14" d="M281.88,390.52l12.82-6.58l-2.39-4.77l-12.82,6.58c-1.32,0.66-1.85,2.26-1.19,3.58l0,0
											C278.96,390.64,280.57,391.18,281.88,390.52z"/>
										<g>
											<g>
												<path class="st14" d="M291.75,379.72l0.15-1.31c0.08-0.66-0.4-1.27-1.06-1.34l0,0c-0.66-0.08-1.27,0.4-1.34,1.06
													l-0.15,1.31c-0.08,0.66,0.4,1.27,1.06,1.34l0,0C291.07,380.86,291.67,380.38,291.75,379.72z"/>
												<path class="st14" d="M289.03,379.31c-0.48,0.92-0.13,2.05,0.79,2.54c0.92,0.48,2.05,0.13,2.54-0.79
													s0.13-2.05-0.79-2.54S289.51,378.39,289.03,379.31z"/>
											</g>
											<path class="st14" d="M288.58,383.84c0.69,2.05,2.92,3.16,4.97,2.46c2.05-0.69,3.16-2.92,2.46-4.97
												c-0.69-2.05-2.92-3.16-4.97-2.46C288.99,379.56,287.88,381.79,288.58,383.84z"/>
											<g>
												<path class="st14" d="M292.59,380.94l4.15-1.67c0.63-0.28,0.91-1.02,0.63-1.65l0,0c-0.28-0.63-1.02-0.91-1.65-0.63
													l-4.15,1.67c-0.63,0.28-0.91,1.02-0.63,1.65l0,0C291.22,380.94,291.96,381.22,292.59,380.94z"/>
											</g>
											<g>
												<path class="st14" d="M293.97,383.07l3.3-0.28c0.69-0.06,1.19-0.67,1.13-1.36l0,0c-0.06-0.69-0.67-1.19-1.36-1.13
													l-3.3,0.28c-0.69,0.06-1.19,0.67-1.13,1.36l0,0C292.68,382.62,293.29,383.13,293.97,383.07z"/>
											</g>
										</g>
									</g>
									<g>
										<path class="st14" d="M282.86,386.35l-3.7-6.12l-3.7-6.12c-0.41-0.67-1.05-1.11-1.76-1.29c-0.71-0.17-1.48-0.08-2.15,0.32
											l0,0l0,0c-0.68,0.41-1.13,1.05-1.31,1.77c-0.18,0.71-0.08,1.5,0.34,2.18l3.68,6.09l3.68,6.09
											c0.41,0.68,1.05,1.13,1.76,1.31c0.71,0.18,1.49,0.09,2.17-0.32l0,0v0c0.68-0.41,1.13-1.05,1.31-1.76
											C283.36,387.81,283.27,387.03,282.86,386.35z"/>
										<path class="st2" d="M280.21,381.21l-4.21-6.96c-0.47-0.76-1.19-1.27-2-1.47c-0.8-0.2-1.68-0.09-2.45,0.37l0,0l0,0
											c-0.78,0.46-1.29,1.2-1.49,2.01c-0.2,0.81-0.09,1.7,0.38,2.48l4.19,6.93L280.21,381.21z"/>
										<path class="st2" d="M270.21,379.3c2.04,1.81,5.16,1.61,6.97-0.43c1.81-2.04,1.62-5.16-0.43-6.97
											c-2.04-1.81-5.16-1.62-6.97,0.43C267.97,374.38,268.17,377.5,270.21,379.3z"/>
									</g>
								</g>
								<g>
									<path class="st14" d="M278.91,376.28L278.91,376.28c1.4,0.25,2.74-0.69,2.99-2.09l1.18-6.68c0.25-1.4-0.69-2.74-2.09-2.99
										l0,0c-1.4-0.25-2.74,0.69-2.99,2.09l-1.18,6.67C276.57,374.69,277.51,376.03,278.91,376.28z"/>
									<path class="st0" d="M280.99,364.52c-1.4-0.25-2.74,0.69-2.99,2.09l-0.7,3.94c0.41,2.23,2.26,3.88,4.47,4.08
										c0.05-0.14,0.1-0.29,0.12-0.45l1.18-6.68C283.33,366.11,282.4,364.77,280.99,364.52z"/>
									<path class="st0" d="M273.95,368.43c0.34,1.63,1.94,2.68,3.57,2.34s2.68-1.94,2.34-3.57s-1.94-2.68-3.57-2.34
										C274.66,365.21,273.61,366.8,273.95,368.43z"/>
									<path class="st0" d="M283.01,364.37c-0.07,2.1,1.11,3.84,2.64,3.89s2.82-1.61,2.89-3.71c0.07-2.1-1.11-3.84-2.64-3.89
										C284.37,360.61,283.08,362.27,283.01,364.37z"/>
									<path class="st0" d="M290.36,360.92c0,2.49-2.02,4.5-4.5,4.5c-2.49,0-4.5-2.02-4.5-4.5c0-2.49,2.02-4.5,4.5-4.5
										C288.35,356.42,290.36,358.44,290.36,360.92z"/>
									<path class="st14" d="M283.51,374.24L283.51,374.24c2.75-0.28,4.76-2.74,4.48-5.49l-0.37-3.64
										c-0.28-2.75-2.74-4.76-5.49-4.48l0,0c-2.75,0.28-4.76,2.74-4.48,5.49l0.37,3.64C278.3,372.52,280.76,374.52,283.51,374.24z
										"/>
									<path class="st0" d="M274.23,363.9c-0.08,2.54,1.08,4.64,2.61,4.69c1.53,0.05,2.83-1.97,2.92-4.51
										c0.08-2.54-1.08-4.64-2.61-4.69C275.62,359.35,274.32,361.36,274.23,363.9z"/>
									<path class="st0" d="M270.49,366.27c0.1,2.27,2.03,4.03,4.3,3.92c2.27-0.1,4.03-2.03,3.92-4.3
										c-0.1-2.27-2.03-4.03-4.3-3.92C272.15,362.07,270.39,364,270.49,366.27z"/>
									<path class="st0" d="M275.75,356.96c0.91,4.36,5.18,7.16,9.53,6.25c4.36-0.91,7.16-5.18,6.25-9.53
										c-0.91-4.36-5.18-7.16-9.53-6.25C277.64,348.33,274.84,352.6,275.75,356.96z"/>
									<path class="st0" d="M269.58,360.32c0.15,3.17,2.83,5.63,6.01,5.48c3.17-0.15,5.63-2.83,5.48-6.01
										c-0.15-3.17-2.83-5.63-6.01-5.48C271.89,354.46,269.43,357.15,269.58,360.32z"/>
									<path class="st0" d="M273.02,362.39c0.49,2.33,2.77,3.83,5.1,3.34c2.33-0.49,3.83-2.77,3.34-5.1
										c-0.49-2.33-2.77-3.83-5.1-3.34C274.04,357.78,272.54,360.06,273.02,362.39z"/>
									<g>
										<g>
											<path class="st0" d="M286.52,366.34c0,0.25,0.14,0.46,0.32,0.46c0.18,0,0.33-0.2,0.33-0.46c0-0.25-0.14-0.46-0.32-0.46
												C286.67,365.88,286.52,366.09,286.52,366.34z"/>
											<path class="st0" d="M283.76,366.62c0,0.25,0.14,0.46,0.32,0.46c0.18,0,0.33-0.2,0.33-0.46c0-0.25-0.14-0.46-0.32-0.46
												C283.91,366.17,283.76,366.37,283.76,366.62z"/>
											<path class="st15" d="M287.7,365.57c-0.13-0.22-0.41-0.55-1.28-0.54"/>
											<path class="st15" d="M282.94,365.42c0.16-0.12,0.49-0.49,1.31-0.44"/>
										</g>
										<g>
											<path class="st14" d="M279.39,367.48c-0.02-0.97-0.83-1.74-1.8-1.72l0,0c-1.03,0.02-1.84,0.88-1.82,1.9l0,0
												c0.02,1.03,0.88,1.84,1.9,1.82l1.76-0.04L279.39,367.48z"/>
											<path class="st0" d="M277.03,367.67c-0.02,0.46,0.35,0.85,0.81,0.87c0.46,0.02,0.85-0.35,0.87-0.81
												c0.02-0.46-0.35-0.85-0.81-0.87C277.43,366.85,277.04,367.21,277.03,367.67z"/>
										</g>
										<path class="st0" d="M286.71,369.63c0,0.67-0.56,1.2-1.25,1.2c-0.69,0-1.25-0.54-1.25-1.2H286.71z"/>
									</g>
								</g>
							</g>
						</g>
					</g>
					<g>
						<g>
							<g>
								<path class="st0" d="M490.74,406.97c0.64,1.04,0.14-0.43,1.2-1.07l0,0c0.94-0.57,1.32-1.7,0.94-2.68l-0.44-1.11
									c0,0-6.42-24.69-11.37-30.51c-4.95-5.82-9.43,0.98-8.8,2.02L490.74,406.97z"/>
								<path class="st0" d="M473.92,376.17L473.92,376.17c-1.46-1.13-2.2-2.67-1.82-3.67l0.45-1.13c0,0,7.12-30.46,13.33-35.13
									c6.21-4.67,11.81,2.72,11.15,10.34S478.42,379.93,473.92,376.17z"/>
								<g>
									<path class="st6" d="M495.48,406.69l-5.03,2.53l-1.2-2.23c-0.13-0.23-0.05-0.51,0.16-0.62l4.64-2.33
										c0.67-0.34,1.54-0.02,1.93,0.71l0,0C496.38,405.49,496.15,406.35,495.48,406.69z"/>
									<path class="st6" d="M495.32,407.2l-5.75,2.55l-1.13-2.68c-0.1-0.25,0.02-0.53,0.27-0.62l5.46-2.06
										c0.79-0.3,1.69,0.09,2.01,0.87l0,0C496.5,406.02,496.12,406.9,495.32,407.2z"/>
									<polygon class="st6" points="488.33,414.13 500.01,410.08 495.54,405.42 486.95,411.64 									"/>
									<path class="st6" d="M500.92,411.48l-0.41-1.11c-0.08-0.23-0.34-0.35-0.58-0.27l-11.61,4.02l1.01,1.83l11.31-3.92
										C500.88,411.95,501,411.7,500.92,411.48z"/>
									<path class="st6" d="M488.48,411.1l-6.16,1.88c-0.42,0.13-0.7,0.51-0.69,0.94l7.34-0.02L488.48,411.1z"/>
									<path class="st6" d="M488.98,413.9l-7.45,0.02c-0.25,0-0.44,0.2-0.44,0.44l0.02,1.18c0.01,0.24,0.21,0.44,0.46,0.44
										l7.77-0.02L488.98,413.9z"/>
								</g>
							</g>
							<g>
								<g>
									<path class="st1" d="M503.38,345.23c0,5.87-4.13,10.63-9.22,10.63c-5.09,0-9.22-4.76-9.22-10.63
										c0-5.87,4.13-10.63,9.22-10.63C499.26,334.6,503.38,339.36,503.38,345.23z"/>
									<path class="st1" d="M491.11,377.02L491.11,377.02c1.8-0.18,3.21-1.16,3.4-2.27l0.19-1.26c0,0,8.96-27.55,6.19-34.33
										c-2.7-6.61-11.41-7.47-14.56-1.26C483.11,344.27,485.4,377.85,491.11,377.02z"/>
									<path class="st1" d="M489.81,409.69c0.09,1.22,0.32-0.32,1.55-0.4l0,0c1.1-0.07,1.95-0.91,2.06-1.95l0.12-1.19
										c0,0,5.6-24.89,3.86-32.33c-1.74-7.44-8.83-3.45-8.74-2.23L489.81,409.69z"/>
								</g>
								<g>
									<g>
										<polygon class="st10" points="497.48,414.46 491.96,407.22 486.44,414.46 										"/>
										<path class="st10" d="M486.35,416.18h11.15c0.25,0,0.46-0.21,0.46-0.46v-1.23c0-0.25-0.21-0.46-0.46-0.46h-11.15
											c-0.25,0-0.46,0.21-0.46,0.46v1.23C485.89,415.98,486.09,416.18,486.35,416.18z"/>
									</g>
									<path class="st10" d="M489.73,410.25h4.39c0.92,0,1.66-0.75,1.66-1.66l0,0c0-0.92-0.74-1.66-1.66-1.66h-4.39
										c-0.92,0-1.66,0.74-1.66,1.66l0,0C488.06,409.5,488.81,410.25,489.73,410.25z"/>
								</g>
							</g>
						</g>
						<g>
							<g>
								<g>
									<path class="st2" d="M490.26,311.46c-0.2-2.72-2.56-4.77-5.29-4.57c-2.72,0.2-4.77,2.56-4.57,5.29
										c0.2,2.72,2.56,4.77,5.29,4.57C488.41,316.55,490.46,314.18,490.26,311.46z"/>
									<path class="st2" d="M468.3,320.05c-1.8,0.44-3.63-0.66-4.07-2.47l0,0c-0.44-1.81,0.66-3.63,2.47-4.07l15.06-3.6
										c1.8-0.44,3.63,0.66,4.07,2.47l0,0c0.44,1.81-0.66,3.63-2.47,4.07L468.3,320.05z"/>
								</g>
								<path class="st2" d="M453.82,319.43c-1.43,0-2.59-1.16-2.59-2.59l0,0c0-1.43,1.16-2.59,2.59-2.59l14.67-0.04
									c1.43,0,2.59,1.16,2.59,2.59l0,0c0,1.43-1.16,2.59-2.59,2.59L453.82,319.43z"/>
								<g>
									<path class="st14" d="M454.02,314.53c-1.38-1.46-3.69-1.52-5.14-0.13c-1.46,1.38-1.52,3.69-0.13,5.14
										c1.38,1.46,3.69,1.52,5.14,0.13C455.34,318.29,455.4,315.99,454.02,314.53z"/>
									<g>
										<path class="st14" d="M450.18,316.01l-4.17,1.64c-0.59,0.23-1.25-0.06-1.48-0.65l0,0c-0.23-0.59,0.06-1.25,0.65-1.48
											l4.17-1.64c0.59-0.23,1.25,0.06,1.48,0.65l0,0C451.06,315.12,450.77,315.78,450.18,316.01z"/>
									</g>
								</g>
							</g>
							<g>
								<g>
									<path class="st2" d="M499.77,336.24l-0.25-22.03l-17.47,4.04l-0.32,4.54c-0.13,1.89,0,3.79,0.4,5.64l1.7,7.9
										C483.87,341.86,499.8,341.77,499.77,336.24z"/>
									<path class="st2" d="M479.83,317.21c-0.88,2.69,0.26,5.47,2.54,6.22l11.02,3.61c2.28,0.75,4.85-0.83,5.73-3.51l0,0
										c0.88-2.69-0.26-5.47-2.9-4.43l-11.02-3.61C483.27,312.95,480.71,314.52,479.83,317.21L479.83,317.21z"/>
									<path class="st2" d="M482.51,318.01c1.03-6.86,3.84-12.48,8.2-11.84l5.24,0.86c4.35,0.64,5.86,6.72,2.88,17.9
										L482.51,318.01z"/>
									<path class="st2" d="M482.32,318.13c0.92-5.1,4.03-8.96,8.52-8.66l1.83-0.02c4.49,0.3,8.44,4.77,7.53,9.86L482.32,318.13z"
										/>
									<path class="st2" d="M487.5,309.73c0.69-4.55,2.55-8.28,5.44-7.85l3.47,0.57c2.89,0.43,3.89,4.46,1.91,11.88L487.5,309.73z
										"/>
								</g>
								<path class="st0" d="M500.23,312.77c-0.09-0.24-0.19-0.48-0.3-0.73c-0.7-0.2-1.14-0.79-1.9-0.68
									c-2.93,0.42-4.18,0.53-3.76,3.46c0.06,0.39,0.16,0.76,0.29,1.12l-7.09,10.5c-0.32,0.5-0.47,1.06-0.5,1.61l-4.37,1.56
									l0.03,1.04l0.93,4.29l6.14-2.46c0.45-0.21,0.8-0.55,1.05-0.93c0.96-0.12,1.86-0.64,2.42-1.52l6.17-9.64
									c0.19-0.03,0.36-0.09,0.54-0.14c0.06-0.32,0.11-0.64,0.16-0.95l0.18,0.01c0.14-0.79,0.15-1.56,0.08-2.31
									C500.4,315.4,500.38,313.99,500.23,312.77z"/>
							</g>
							<g>
								<g>
									<g>
										<path class="st14" d="M477.42,335.51c-2,0.44-3.97-0.82-4.41-2.82c-0.44-2,0.82-3.97,2.82-4.41
											c2-0.44,3.97,0.82,4.41,2.82C480.68,333.1,479.42,335.08,477.42,335.51z"/>
										<g>
											<path class="st14" d="M476.95,334.87l-4.31-1.27c-0.57-0.18-0.9-0.79-0.72-1.36l0,0c0.18-0.57,0.79-0.9,1.36-0.72
												l4.31,1.27c0.57,0.18,0.9,0.79,0.72,1.36l0,0C478.13,334.72,477.52,335.04,476.95,334.87z"/>
											<path class="st14" d="M476.7,332.59l-4.31-1.27c-0.57-0.18-0.9-0.79-0.72-1.36l0,0c0.18-0.57,0.79-0.9,1.36-0.72
												l4.31,1.27c0.57,0.18,0.9,0.79,0.72,1.36l0,0C477.89,332.44,477.28,332.77,476.7,332.59z"/>
											<path class="st14" d="M476.46,330.31l-3.39-0.96c-0.57-0.18-0.9-0.79-0.72-1.36l0,0c0.18-0.57,0.79-0.9,1.36-0.72
												l3.39,0.96c0.57,0.18,0.9,0.79,0.72,1.36l0,0C477.64,330.17,477.03,330.49,476.46,330.31z"/>
										</g>
									</g>
									<path class="st14" d="M476.34,329.56L476.34,329.56c-0.48,0.15-0.99-0.11-1.14-0.58l-0.54-1.67
										c-0.15-0.48,0.11-0.99,0.58-1.14l0,0c0.48-0.15,0.99,0.11,1.14,0.58l0.54,1.67C477.08,328.89,476.82,329.4,476.34,329.56z"
										/>
									<circle class="st14" cx="476.59" cy="329.6" r="1.97"/>
								</g>
								<g>
									<g>
										<path class="st2" d="M492.33,329.67c-1.1,1.5-3.2,1.82-4.7,0.72l0,0c-1.5-1.1-1.82-3.21-0.72-4.7l9.23-12.43
											c1.1-1.5,3.2-1.82,4.7-0.72l0,0c1.5,1.1,1.82,3.2,0.72,4.7L492.33,329.67z"/>
									</g>
									<path class="st2" d="M479.09,335.64c-1.33,0.53-2.83-0.12-3.36-1.45l0,0c-0.53-1.33,0.12-2.83,1.45-3.36l9.61-3.75
										c1.33-0.53,2.83,0.12,3.36,1.45l0,0c0.53,1.33-0.12,2.83-1.45,3.36L479.09,335.64z"/>
									<path class="st2" d="M504.08,314.76c-0.21-2.95-2.78-5.17-5.72-4.95c-2.95,0.21-5.17,2.78-4.95,5.72
										c0.21,2.95,2.78,5.17,5.73,4.95C502.07,320.27,504.29,317.71,504.08,314.76z"/>
								</g>
							</g>
						</g>
						<g>
							<path class="st0" d="M504.89,296.29c-4.2,0-7.81,2.45-9.53,5.98l1.05,0.17c2.18,0.32,3.28,2.69,2.85,7.01
								c0.07,0.12,0.13,0.25,0.2,0.38c2.46,0.33,4.44,2.34,4.63,4.92c0.07,0.95-0.13,1.84-0.5,2.64c0.43,0.05,0.87,0.09,1.32,0.09
								c5.85,0,10.6-4.75,10.6-10.6C515.49,301.04,510.74,296.29,504.89,296.29z"/>
							<path class="st0" d="M480.68,310.17c0.64-1.8,2.28-3.14,4.3-3.29c0.76-0.05,1.48,0.08,2.14,0.34
								c0.35-0.28,0.72-0.51,1.1-0.69c0.95-2.96,2.54-4.98,4.71-4.66l3.47,0.57c0.17,0.03,0.32,0.09,0.48,0.14
								c-1.12-4.02-4.8-6.97-9.17-6.97c-5.26,0-9.53,4.27-9.53,9.53c0,1.94,0.58,3.74,1.58,5.25L480.68,310.17z"/>
							<path class="st0" d="M481.22,294.53c0,3.2,2.59,5.79,5.79,5.79c3.2,0,5.79-2.59,5.79-5.79s-2.59-5.79-5.79-5.79
								C483.81,288.74,481.22,291.33,481.22,294.53z"/>
							<path class="st0" d="M499.33,297.76c0,3.62,2.93,6.55,6.55,6.55s6.55-2.93,6.55-6.55c0-3.62-2.93-6.55-6.55-6.55
								S499.33,294.14,499.33,297.76z"/>
							<circle class="st0" cx="500.32" cy="290.64" r="8.58"/>
							<g>
								<g>
									<path class="st14" d="M490.09,308.44c-0.01,0.45,0.04,1.09,0.1,1.77c0.16,1.69,2.14,2.5,3.46,1.45
										c1.1-0.88,2.09-1.85,2.1-2.54l0.1-7.19c0.02-1.56-1.22-2.85-2.79-2.87l0,0c-1.56-0.02-2.85,1.22-2.87,2.79L490.09,308.44z"
										/>
								</g>
								<path class="st0" d="M490.19,301.19c0.02-1.56,1.31-2.81,2.87-2.79c1.56,0.02,2.81,1.31,2.79,2.87l-0.05,3.46
									c-0.81,1.38-2.06,2.37-3.6,2.69c-0.71,0.15-1.42,0.13-2.11-0.01L490.19,301.19z"/>
							</g>
							<path class="st14" d="M486.6,298.91c-0.32,3.79,1.96,7.07,5.08,7.34l0,0c3.12,0.26,5.91-2.6,6.23-6.39l0.25-2.98
								c0.32-3.79-1.96-7.07-5.08-7.34l0,0c-3.12-0.26-5.91,2.6-6.23,6.39L486.6,298.91z"/>
							<path class="st0" d="M496.11,295.21c0,2.7,2.19,4.89,4.89,4.89c2.7,0,4.89-2.19,4.89-4.89c0-2.7-2.19-4.89-4.89-4.89
								C498.29,290.33,496.11,292.52,496.11,295.21z"/>
							<circle class="st0" cx="490.8" cy="285.84" r="8.19"/>
							<g>
								<g>
									<path class="st0" d="M488.89,302.33c0.13,0.61,1.05,1.29,1.98,1.09c0.93-0.19,1.51-1.19,1.38-1.79L488.89,302.33z"/>
								</g>
								<g>
									<g>
										<g>
											<path class="st14" d="M496.34,301.75l1.28,0.07c0.98,0.08,1.83-0.65,1.91-1.63l0,0c0.08-0.98-0.65-1.83-1.63-1.91
												l-1.28-0.07L496.34,301.75z"/>
											<path class="st0" d="M497.06,300.84l0.59,0.06c0.45,0.04,0.84-0.3,0.88-0.75l0,0c0.04-0.45-0.3-0.84-0.75-0.88
												l-0.59-0.06L497.06,300.84z"/>
										</g>
									</g>
								</g>
								<g>
									<path class="st0" d="M492.56,297.95c-0.05,0.34,0.11,0.65,0.35,0.68c0.24,0.03,0.48-0.21,0.53-0.56
										c0.05-0.34-0.11-0.65-0.35-0.68S492.61,297.61,492.56,297.95z"/>
									<g>
										<path class="st0" d="M494,296.88c-0.03,0-0.06,0-0.09-0.02c-0.29-0.1-0.58-0.17-0.86-0.2c-0.27-0.03-0.52-0.02-0.75,0.03
											c-0.14,0.03-0.28-0.06-0.3-0.2c-0.03-0.14,0.06-0.28,0.2-0.3c0.28-0.05,0.58-0.07,0.9-0.04c0.33,0.03,0.66,0.11,0.99,0.22
											c0.13,0.05,0.2,0.2,0.16,0.33C494.2,296.81,494.1,296.88,494,296.88z"/>
									</g>
									<path class="st0" d="M488.23,297.51c-0.04,0.34-0.27,0.6-0.51,0.57c-0.24-0.03-0.4-0.33-0.36-0.67
										c0.04-0.34,0.27-0.6,0.51-0.57C488.11,296.86,488.27,297.16,488.23,297.51z"/>
									<g>
										<path class="st0" d="M486.68,296.56c-0.1,0-0.2-0.06-0.24-0.16c-0.05-0.13,0.01-0.28,0.15-0.33
											c0.32-0.13,0.65-0.21,0.98-0.25c0.32-0.04,0.62-0.04,0.9,0.01c0.14,0.02,0.24,0.16,0.21,0.3
											c-0.02,0.14-0.16,0.24-0.3,0.21c-0.23-0.04-0.48-0.04-0.75-0.01c-0.28,0.04-0.57,0.11-0.86,0.22
											C486.74,296.55,486.71,296.56,486.68,296.56z"/>
									</g>
								</g>
								<g>
									<path class="st16" d="M490.47,297.66c-0.01,1.58,1.25,2.86,2.83,2.88c1.58,0.01,2.86-1.25,2.88-2.83
										c0.01-1.58-1.25-2.86-2.83-2.88C491.78,294.82,490.49,296.08,490.47,297.66z"/>
									<path class="st16" d="M485.21,296.96c-0.01,1.32,1.05,2.41,2.38,2.42c1.33,0.01,2.41-1.05,2.42-2.38
										c0.01-1.33-1.05-2.41-2.38-2.42C486.3,294.57,485.22,295.64,485.21,296.96z"/>
									<path class="st6" d="M490.62,297.76l-0.92-0.17c-0.22-0.04-0.36-0.25-0.32-0.47l0,0c0.04-0.22,0.25-0.36,0.47-0.32
										l0.92,0.17c0.22,0.04,0.36,0.25,0.32,0.47l0,0C491.05,297.66,490.84,297.8,490.62,297.76z"/>
								</g>
							</g>
						</g>
					</g>
					<g>
						<g>
							<path class="st0" d="M462.01,350.59c0.08-0.12,0.16-0.25,0.23-0.38c0.02-0.04,0.04-0.07,0.05-0.11
								c0.05-0.1,0.1-0.2,0.14-0.31c0.02-0.05,0.04-0.11,0.06-0.16c0.04-0.1,0.07-0.2,0.1-0.3c0.02-0.06,0.04-0.12,0.05-0.17
								c0.03-0.11,0.06-0.22,0.09-0.33c0.01-0.05,0.03-0.11,0.04-0.16c0.03-0.15,0.06-0.29,0.09-0.45c0-0.02,0.01-0.04,0.01-0.07
								c0.03-0.18,0.05-0.35,0.08-0.54c0.01-0.06,0.01-0.11,0.02-0.17c0.01-0.13,0.03-0.26,0.04-0.39c0.01-0.07,0.01-0.14,0.02-0.2
								c0.01-0.12,0.02-0.25,0.02-0.37c0-0.07,0.01-0.14,0.01-0.21c0.01-0.13,0.01-0.27,0.01-0.4c0-0.06,0-0.12,0-0.18
								c0-0.19,0.01-0.38,0.01-0.57v-12.8c0-4.43-0.48-6.71-4.24-6.71h-5.33c3.76,0,4.24,2.28,4.24,6.71v12.8
								c0,0.19,0,0.38-0.01,0.57c0,0.06,0,0.12,0,0.18c0,0.13-0.01,0.27-0.01,0.4c0,0.07-0.01,0.14-0.01,0.21
								c-0.01,0.12-0.01,0.25-0.02,0.37c0,0.07-0.01,0.14-0.02,0.2c-0.01,0.13-0.02,0.26-0.04,0.39c-0.01,0.06-0.01,0.11-0.02,0.17
								c-0.02,0.18-0.05,0.36-0.08,0.54c0,0.02-0.01,0.04-0.01,0.07c-0.03,0.15-0.05,0.3-0.09,0.45c-0.01,0.06-0.03,0.11-0.04,0.16
								c-0.03,0.11-0.06,0.22-0.09,0.33c-0.02,0.06-0.03,0.12-0.05,0.17c-0.03,0.1-0.07,0.2-0.1,0.3c-0.02,0.05-0.04,0.11-0.06,0.16
								c-0.04,0.11-0.09,0.21-0.14,0.31c-0.02,0.04-0.03,0.08-0.05,0.11c-0.07,0.13-0.14,0.26-0.23,0.38
								c-0.02,0.02-0.04,0.05-0.05,0.07c-0.07,0.09-0.14,0.18-0.21,0.26c-0.03,0.04-0.07,0.07-0.1,0.1
								c-0.07,0.07-0.13,0.13-0.2,0.19c-0.04,0.03-0.08,0.06-0.12,0.09c-0.07,0.05-0.15,0.1-0.23,0.15
								c-0.04,0.02-0.08,0.05-0.13,0.07c-0.12,0.06-0.24,0.12-0.38,0.16c0,0-0.01,0-0.01,0c-0.13,0.04-0.27,0.07-0.41,0.1
								c-0.19,0.03-0.39,0.05-0.61,0.05h5.33c0.22,0,0.42-0.02,0.61-0.05c0.02,0,0.04,0,0.05,0c0.13-0.02,0.25-0.05,0.36-0.09
								c0,0,0,0,0.01,0c0.11-0.04,0.22-0.08,0.32-0.13c0.02-0.01,0.04-0.02,0.06-0.03c0.04-0.02,0.09-0.05,0.13-0.07
								c0.08-0.05,0.16-0.1,0.23-0.15c0.04-0.03,0.08-0.06,0.12-0.09c0.07-0.06,0.14-0.12,0.2-0.19c0.03-0.03,0.07-0.07,0.1-0.1
								c0.07-0.08,0.14-0.17,0.21-0.27C461.98,350.64,461.99,350.62,462.01,350.59z"/>
							<g>
								<rect x="439.61" y="316.76" class="st10" width="5.33" height="43.95"/>
							</g>
						</g>
						<g>
							<path class="st6" d="M473.26,322.48c1.88,3.45,2.3,5.79,2.3,16.26c0,9.6-0.36,21.97-12.97,21.97h-17.65v-43.95h17.46
								C467.8,316.76,471.32,318.91,473.26,322.48z M463.07,345.14v-12.8c0-4.43-0.48-6.71-4.24-6.71h-1.76v26.23h2.49
								C462.59,351.85,463.07,348.46,463.07,345.14"/>
						</g>
					</g>
					<g>
						<g>
							<path class="st14" d="M413.29,332.58L413.29,332.58c0.17,1.59-0.97,3.02-2.56,3.19l-19.24,2.11
								c-1.59,0.17-3.02-0.97-3.19-2.56l0,0c-0.17-1.59,0.97-3.02,2.56-3.19l19.24-2.11C411.69,329.84,413.11,330.99,413.29,332.58z
								"/>
							<g>
								<path class="st14" d="M407.17,330.51L407.17,330.51c0.46,1.67,2.19,2.65,3.87,2.19l17.18-4.76
									c1.67-0.46,2.65-2.19,2.19-3.87l0,0c-0.46-1.67-2.19-2.65-3.87-2.19l-17.18,4.76C407.69,327.11,406.71,328.84,407.17,330.51
									z"/>
								<g>
									<path class="st14" d="M428.09,328.25c-1.73,0.73-3.72-0.08-4.45-1.81c-0.73-1.73,0.08-3.72,1.81-4.45
										c1.73-0.73,3.72,0.08,4.45,1.81C430.63,325.53,429.82,327.52,428.09,328.25z"/>
									<path class="st14" d="M428.27,329.39l-1.49-1.13c-0.46-0.35-0.55-1.01-0.2-1.47l0,0c0.35-0.46,1.01-0.55,1.47-0.2
										l1.49,1.13c0.46,0.35,0.55,1.01,0.2,1.47l0,0C429.39,329.64,428.74,329.74,428.27,329.39z"/>
									<path class="st14" d="M430.99,329.08l-3.54-3.38c-0.35-0.35-0.35-0.92,0-1.27l0,0c0.35-0.35,0.92-0.35,1.27,0l3.54,3.38
										c0.35,0.35,0.35,0.92,0,1.27l0,0C431.91,329.43,431.34,329.43,430.99,329.08z"/>
									<path class="st14" d="M432.29,327.86l-3.16-3.01c-0.34-0.36-0.31-0.93,0.05-1.26l0,0c0.36-0.34,0.93-0.31,1.26,0.05
										l3.17,3.01c0.34,0.36,0.31,0.93-0.05,1.26l0,0C433.19,328.24,432.62,328.22,432.29,327.86z"/>
									<path class="st14" d="M433.03,325.3l-4.27-1.42c-0.39-0.16-0.58-0.6-0.42-0.99l0,0c0.16-0.39,0.6-0.58,0.99-0.42l4.27,1.42
										c0.39,0.16,0.58,0.6,0.42,0.99l0,0C433.86,325.28,433.42,325.46,433.03,325.3z"/>
								</g>
							</g>
						</g>
						<g>
							<path class="st0" d="M393.63,312.27c-2.37-1.22-5.88,0.73-7.84,4.35c-1.96,3.63-1.62,7.55,0.75,8.78
								c2.37,1.22,5.88-0.73,7.84-4.35C396.34,317.42,396,313.49,393.63,312.27z"/>
							<path class="st0" d="M376.18,344.51v-9.88c0-2.43,1.97-4.39,4.39-4.39h0.81v-1.83h1.43v-4.76h5.72v4.76h1.69v1.93
								c0.49,0.11,0.94,0.33,1.34,0.61c0.15-4.51-1.4-8.6-4.69-11.09c-6.26-4.74-16.37-1.93-22.59,6.28
								c-6.21,8.21,0.08,23.45,0.08,23.45s6.6,0.77,13.01-0.76C376.62,347.56,376.18,346.09,376.18,344.51z"/>
							<path class="st14" d="M385.67,334.53L385.67,334.53c-1.58,0-2.86-1.28-2.86-2.86v-8.02h5.72v8.02
								C388.53,333.25,387.25,334.53,385.67,334.53z"/>
							<path class="st0" d="M389,324.24l-5.37-1.03l-0.59,3.09c0.86,1.45,2.26,2.46,3.91,2.62C389.16,328.95,389,324.24,389,324.24z
								"/>
							<path class="st14" d="M392.23,320.71c0.36,3.72-1.83,6.98-4.89,7.27l0,0c-3.06,0.3-5.84-2.47-6.2-6.19l-0.29-2.93
								c-0.36-3.72,1.82-6.98,4.89-7.27l0,0c3.06-0.3,5.84,2.47,6.21,6.19L392.23,320.71z"/>
							<g>
								<path class="st0" d="M401.41,303.17c2.35,2.33-0.19,6.82-5.67,10.03c-5.48,3.21-11.83,3.92-14.18,1.59
									c-2.35-2.33,0.19-6.82,5.67-10.03C392.71,301.55,399.06,300.83,401.41,303.17z"/>
								<path class="st0" d="M402.85,311.81c0.73,3.67-3.39,6.77-9.21,6.94c-5.82,0.16-11.14-2.67-11.87-6.34
									c-0.73-3.67,3.39-6.77,9.21-6.94C396.81,305.3,402.12,308.14,402.85,311.81z"/>
							</g>
							<path class="st0" d="M385.42,311.11c-1.9-1.87-5.83-1.06-8.78,1.81c-2.95,2.88-3.8,6.73-1.9,8.6
								c1.9,1.88,5.83,1.06,8.78-1.81C386.47,316.84,387.32,312.98,385.42,311.11z"/>
							<g>
								<g>
									<path class="st0" d="M387.26,320.13c0,0.3-0.18,0.55-0.4,0.55c-0.21,0-0.39-0.25-0.38-0.56c0-0.3,0.18-0.55,0.4-0.55
										C387.09,319.57,387.26,319.82,387.26,320.13z"/>
									<g>
										<path class="st0" d="M386.15,318.99c0.02,0,0.05,0,0.08,0c0.26-0.05,0.53-0.07,0.78-0.05c0.24,0.01,0.46,0.06,0.65,0.13
											c0.12,0.04,0.25-0.02,0.29-0.14c0.04-0.12-0.02-0.25-0.14-0.29c-0.23-0.09-0.5-0.14-0.78-0.16
											c-0.29-0.02-0.59,0-0.89,0.06c-0.12,0.02-0.21,0.14-0.18,0.27C385.98,318.91,386.06,318.98,386.15,318.99z"/>
									</g>
									<path class="st0" d="M391.09,320.34c-0.01,0.3,0.15,0.56,0.37,0.57c0.21,0.01,0.4-0.23,0.41-0.54s-0.15-0.56-0.37-0.57
										C391.29,319.8,391.1,320.04,391.09,320.34z"/>
									<g>
										<path class="st0" d="M392.58,319.73c0.09,0.01,0.18-0.03,0.23-0.11c0.06-0.11,0.03-0.25-0.08-0.31
											c-0.27-0.16-0.54-0.28-0.82-0.36c-0.27-0.08-0.54-0.12-0.79-0.12c-0.13,0-0.23,0.1-0.23,0.23c0,0.13,0.11,0.23,0.23,0.23
											c0.21,0,0.43,0.03,0.66,0.1c0.24,0.07,0.48,0.18,0.72,0.31C392.52,319.72,392.55,319.73,392.58,319.73z"/>
									</g>
								</g>
								<path class="st0" d="M388.11,325.7L388.11,325.7c-0.89-0.19-1.46-1.06-1.27-1.95l0.16-0.76l3.22,0.68l-0.16,0.76
									C389.88,325.32,389,325.89,388.11,325.7z"/>
								<g>
									<g>
										<g>
											<g>
												<path class="st14" d="M384.34,322.54l-3.12,0.37c-1.13,0.13-2.16-0.67-2.29-1.8l0,0c-0.13-1.13,0.67-2.16,1.8-2.29
													l0.93-0.11c1.21-0.14,2.31,0.72,2.45,1.93L384.34,322.54z"/>
											</g>
										</g>
										<path class="st0" d="M382.07,320.59c0.13,0.49-0.17,0.99-0.66,1.12c-0.49,0.13-0.99-0.17-1.12-0.66
											c-0.13-0.49,0.17-0.99,0.66-1.12C381.44,319.81,381.94,320.1,382.07,320.59z"/>
									</g>
									<g>
										<path class="st8" d="M380.88,322.7c0,0.34-0.27,0.61-0.61,0.61s-0.61-0.27-0.61-0.61c0-0.34,0.27-0.61,0.61-0.61
											S380.88,322.36,380.88,322.7z"/>
									</g>
								</g>
							</g>
						</g>
						<g>
							<rect x="377.86" y="346.15" class="st1" width="13.62" height="15.85"/>
							<g>
								<g>
									<circle class="st1" cx="381.91" cy="363.43" r="11.67"/>
									<path class="st1" d="M405.66,375.1h-24.08c-4.37,0-7.91-3.54-7.91-7.91l0,0c0-4.37,3.54-7.91,7.91-7.91h24.08
										c4.37,0,7.91,3.54,7.91,7.91l0,0C413.57,371.56,410.03,375.1,405.66,375.1z"/>
								</g>
								<g>
									<path class="st14" d="M414.01,369.19c0,3.28-2.74,5.94-6.11,5.94c-3.37,0-6.11-2.66-6.11-5.94c0-3.28,2.74-5.94,6.11-5.94
										C411.27,363.25,414.01,365.91,414.01,369.19z"/>
									<path class="st0" d="M400.39,414.65L400.39,414.65c-1.86-0.42-3.02-2.27-2.6-4.13l1.77-7.76c0.42-1.86,2.27-3.02,4.13-2.6
										l0,0c1.86,0.42,3.02,2.27,2.6,4.13l-1.77,7.76C404.09,413.91,402.24,415.07,400.39,414.65z"/>
									<path class="st14" d="M402.63,406.25L402.63,406.25c-1.88-0.4-3.08-2.26-2.68-4.14l7.26-34.05
										c0.4-1.88,2.26-3.08,4.14-2.68l0,0c1.88,0.4,3.08,2.26,2.68,4.14l-7.26,34.05C406.36,405.45,404.51,406.65,402.63,406.25z"
										/>
								</g>
								<g>
									<path class="st14" d="M403.51,368.47c0,3.45-2.9,6.24-6.48,6.24c-3.58,0-6.48-2.79-6.48-6.24c0-3.45,2.9-6.24,6.48-6.24
										C400.6,362.23,403.51,365.02,403.51,368.47z"/>
									<g>
										<path class="st0" d="M399.75,413.67L399.75,413.67c-1.86,0.4-3.7-0.78-4.1-2.65l-1.67-7.78c-0.4-1.86,0.78-3.7,2.65-4.1
											l0,0c1.86-0.4,3.7,0.78,4.1,2.65l1.67,7.78C402.8,411.43,401.62,413.27,399.75,413.67z"/>
										<g>
											<path class="st14" d="M396.96,405.26L396.96,405.26c-1.92-0.13-3.37-1.79-3.24-3.71l2.32-34.74
												c0.13-1.92,1.79-3.37,3.71-3.24l0,0c1.92,0.13,3.37,1.79,3.24,3.71l-2.32,34.74
												C400.54,403.94,398.88,405.39,396.96,405.26z"/>
										</g>
									</g>
								</g>
							</g>
							<path class="st1" d="M384.67,352.99L384.67,352.99c4.69,0,8.49-3.8,8.49-8.49V334c0-2.08-1.68-3.76-3.76-3.76h-8.82
								c-2.43,0-4.39,1.97-4.39,4.39v9.88C376.18,349.19,379.98,352.99,384.67,352.99z"/>
							<g>
								<path class="st1" d="M393.47,342.8h-9.42v-6.53h9.42c1.8,0,3.26,1.46,3.26,3.26l0,0
									C396.73,341.33,395.27,342.8,393.47,342.8z"/>
								<path class="st1" d="M385.8,338.15L385.8,338.15c-2.44,0-4.42-1.98-4.42-4.42v-5.32h8.85v5.32
									C390.23,336.17,388.25,338.15,385.8,338.15z"/>
								<g>
									<path class="st0" d="M396.73,339.53c0.16,1.22-0.52,2.57-1.7,3.19c-0.56,0.34-1.3,0.43-1.89,0.43l-1.82,0.02
										c-2.42-0.01-4.85-0.08-7.27-0.37c2.42-0.3,4.85-0.36,7.27-0.37l1.82,0.02c0.61,0.04,1.11-0.02,1.64-0.24
										C395.79,341.76,396.59,340.75,396.73,339.53z"/>
								</g>
							</g>
						</g>
						<g>
							<g>
								
									<rect x="407.93" y="332.71" transform="matrix(0.3253 -0.9456 0.9456 0.3253 -32.8593 624.7028)" class="st0" width="26.84" height="5.33"/>
							</g>
							<g>
								<polygon class="st0" points="412.44,364.6 407.4,362.87 409.85,335.07 414.89,336.8 								"/>
							</g>
							<g>
								
									<rect x="378.18" y="334.47" transform="matrix(0.3253 -0.9456 0.9456 0.3253 -48.818 605.8531)" class="st10" width="43.95" height="5.33"/>
							</g>
							<g>
								<polygon class="st6" points="439.01,327.26 424.71,368.82 412.44,364.6 414.89,336.8 414.78,336.76 405.97,362.38 
									395.53,358.79 409.83,317.22 422.27,321.5 419.38,348.9 419.5,348.94 428.24,323.55 								"/>
							</g>
						</g>
						<g>
							<path class="st14" d="M384.79,356.93L384.79,356.93c-1.56,0.35-3.1-0.63-3.45-2.19l-4.23-18.88
								c-0.35-1.56,0.63-3.1,2.19-3.45l0,0c1.56-0.35,3.1,0.63,3.45,2.19l4.23,18.88C387.33,355.04,386.35,356.58,384.79,356.93z"/>
							<g>
								<path class="st14" d="M381.5,353.41L381.5,353.41c0.5-1.52,2.13-2.34,3.65-1.85l15.59,5.12c1.52,0.5,2.34,2.13,1.85,3.65
									l0,0c-0.5,1.52-2.13,2.34-3.65,1.85l-15.59-5.12C381.83,356.56,381,354.92,381.5,353.41z"/>
								<g>
									<path class="st14" d="M400.64,356.39c-1.56-0.74-3.42-0.09-4.17,1.47c-0.74,1.56-0.09,3.42,1.47,4.17
										c1.56,0.74,3.42,0.09,4.17-1.47C402.85,359,402.19,357.14,400.64,356.39z"/>
									<path class="st14" d="M400.85,355.35l-1.42,0.97c-0.44,0.3-0.55,0.9-0.25,1.34l0,0c0.3,0.44,0.9,0.55,1.34,0.25l1.42-0.97
										c0.44-0.3,0.55-0.9,0.25-1.34l0,0C401.89,355.16,401.29,355.05,400.85,355.35z"/>
									<path class="st14" d="M403.34,355.75l-3.4,2.95c-0.34,0.31-0.36,0.83-0.05,1.16l0,0c0.31,0.34,0.83,0.36,1.16,0.05
										l3.4-2.95c0.34-0.31,0.36-0.83,0.05-1.16l0,0C404.2,355.47,403.68,355.44,403.34,355.75z"/>
									<path class="st14" d="M404.48,356.93l-3.04,2.63c-0.32,0.32-0.33,0.84-0.01,1.16l0,0c0.32,0.32,0.84,0.33,1.16,0.01
										l3.04-2.63c0.32-0.32,0.33-0.84,0.01-1.16l0,0C405.32,356.61,404.8,356.61,404.48,356.93z"/>
									<path class="st14" d="M405.05,359.31l-3.99,1.12c-0.37,0.13-0.56,0.53-0.43,0.9l0,0c0.13,0.37,0.53,0.56,0.9,0.43
										l3.99-1.12c0.37-0.13,0.56-0.53,0.43-0.9l0,0C405.82,359.37,405.41,359.18,405.05,359.31z"/>
								</g>
							</g>
						</g>
					</g>
					<g>
						<path class="st17" d="M288.06,294.51l19.88-48.66c0.46-1.14,2.04-1.22,2.63-0.15L334.2,289"/>
						<g>
							<path class="st10" d="M360.56,317.02l-85.74,10.24c-2.06,0.25-3.93-1.23-4.18-3.29l-2.89-24.22
								c-0.25-2.06,1.23-3.93,3.29-4.18l85.74-10.24c2.06-0.25,3.93,1.23,4.18,3.29l2.89,24.22
								C364.1,314.9,362.62,316.77,360.56,317.02z"/>
							<g>
								<g>
									<path class="st2" d="M353.55,294.62l-45.5,5.43c-0.65,0.08-1.24-0.39-1.32-1.04l0,0c-0.08-0.65,0.39-1.24,1.04-1.32
										l45.5-5.43c0.65-0.08,1.24,0.39,1.32,1.04l0,0C354.66,293.96,354.2,294.55,353.55,294.62z"/>
									<path class="st2" d="M354.2,300.11l-45.5,5.43c-0.65,0.08-1.24-0.39-1.32-1.04l0,0c-0.08-0.65,0.39-1.24,1.04-1.32
										l45.5-5.43c0.65-0.08,1.24,0.39,1.32,1.04l0,0C355.32,299.45,354.85,300.04,354.2,300.11z"/>
									<path class="st2" d="M354.86,305.61l-45.5,5.43c-0.65,0.08-1.24-0.39-1.32-1.04l0,0c-0.08-0.65,0.39-1.24,1.04-1.32
										l45.5-5.43c0.65-0.08,1.24,0.39,1.32,1.04v0C355.97,304.94,355.51,305.53,354.86,305.61z"/>
									<path class="st2" d="M344.92,312.36l-34.91,4.17c-0.65,0.08-1.24-0.39-1.32-1.04l0,0c-0.08-0.65,0.39-1.24,1.04-1.32
										l34.91-4.17c0.65-0.08,1.24,0.39,1.32,1.04l0,0C346.04,311.69,345.57,312.28,344.92,312.36z"/>
								</g>
								<g>
									<path class="st1" d="M302.14,320.24l-23.24,2.77c-0.79,0.09-1.5-0.47-1.6-1.26l-2.56-21.44c-0.09-0.79,0.47-1.5,1.26-1.6
										l23.24-2.77c0.79-0.09,1.5,0.47,1.6,1.26l2.56,21.44C303.5,319.43,302.93,320.15,302.14,320.24z"/>
									<g>
										<defs>
											
												<rect id="SVGID_11_" x="275.93" y="297.25" transform="matrix(0.9929 -0.1186 0.1186 0.9929 -34.6552 36.4576)" width="26.28" height="24.46"/>
										</defs>
										<clipPath id="SVGID_12_">
											<use xlink:href="#SVGID_11_"  style="overflow:visible;"/>
										</clipPath>
										<g class="st18">
											<path class="st2" d="M294.28,305.48c0.37,3.1-1.84,5.91-4.94,6.28c-3.1,0.37-5.91-1.84-6.28-4.94
												c-0.37-3.1,1.84-5.91,4.94-6.28C291.1,300.18,293.91,302.39,294.28,305.48z"/>
											
												<ellipse transform="matrix(0.9929 -0.1186 0.1186 0.9929 -36.8351 36.8465)" class="st2" cx="291.29" cy="328.03" rx="12.43" ry="14.56"/>
										</g>
									</g>
								</g>
							</g>
						</g>
					</g>
				</g>
				<g>
					<defs>
						<path id="SVGID_13_" d="M236.03,241.05h288.46c1.13,0,2.04,0.91,2.04,2.04v174.46c0,1.13-0.91,2.04-2.04,2.04H236.03
							c-1.13,0-2.04-0.91-2.04-2.04V243.09C233.98,241.96,234.9,241.05,236.03,241.05z"/>
					</defs>
					<clipPath id="SVGID_14_">
						<use xlink:href="#SVGID_13_"  style="overflow:visible;"/>
					</clipPath>
					<g class="st19">
						
							<rect x="220.24" y="125.28" transform="matrix(0.7015 -0.7127 0.7127 0.7015 -163.2757 276.7806)" class="st6" width="57" height="416"/>
						
							<rect x="278.51" y="80.56" transform="matrix(0.7015 -0.7127 0.7127 0.7015 -118.2602 294.8008)" class="st6" width="28.5" height="416"/>
					</g>
				</g>
			</g>
		</g>
	</g>
</g>
</svg>
